{
.appVersion = "3058";
.formatVersion = 3;
DisplayStrings = (
G
);
customParameters = (
{
name = panose;
value = (
2,
0,
5,
3,
0,
0,
0,
0,
0,
0
);
},
{
name = unicodeRanges;
value = (
0
);
},
{
name = fsType;
value = (
);
},
{
name = blueShift;
value = 0;
},
{
name = glyphOrder;
value = (
.notdef,
uni001D,
space,
exclam,
quotedbl,
quotesingle,
parenleft,
parenright,
period,
zero,
one,
two,
three,
four,
five,
six,
seven,
eight,
nine,
colon,
semicolon,
question,
A,
B,
C,
D,
E,
F,
G,
H,
I,
J,
K,
L,
M,
N,
O,
P,
Q,
R,
S,
T,
U,
V,
W,
X,
Y,
Z,
a,
b,
c,
d,
e,
f,
g,
h,
i,
j,
k,
l,
m,
n,
o,
p,
q,
r,
s,
t,
u,
v,
w,
x,
y,
z
);
},
{
name = "Axes ";
value = Weight;
}
);
date = "2020-11-08 23:04:09 +0000";
familyName = Regular;
fontMaster = (
{
customParameters = (
{
name = typoAscender;
value = 800;
},
{
name = typoDescender;
value = -200;
},
{
name = typoLineGap;
value = 90;
},
{
name = winAscent;
value = 789;
},
{
name = winDescent;
value = 199;
},
{
name = hheaAscender;
value = 789;
},
{
name = hheaDescender;
value = -199;
},
{
name = strikeoutPosition;
value = 258;
},
{
name = strikeoutSize;
value = 49;
},
{
name = "Alignment Zones";
value = (
{
pos = 659;
size = 1;
},
{
pos = "-179";
size = "-10";
}
);
}
);
iconName = Bold_Extended;
id = "6D7514A4-2FAB-465B-AF5F-621F801A1E4E";
metricValues = (
{
pos = 800;
},
{
over = 14;
pos = 617;
},
{
over = 14;
pos = 465;
},
{
over = -5;
},
{
pos = -200;
}
);
name = Dyslexic;
stemValues = (
41,
48,
55,
66,
150,
79,
89
);
}
);
glyphs = (
{
glyphname = .notdef;
layers = (
{
hints = (
{
horizontal = 1;
place = (0, 50);
place = (0, 50);
type = Stem;
},
{
horizontal = 1;
place = (483, 50);
place = (483, 50);
type = Stem;
},
{
place = (50, 50);
place = (50, 50);
type = Stem;
},
{
place = (400, 50);
place = (400, 50);
type = Stem;
}
);
layerId = "6D7514A4-2FAB-465B-AF5F-621F801A1E4E";
shapes = (
{
closed = 1;
nodes = (
(50,0,l),
(450,0,l),
(450,533,l),
(50,533,l)
);
},
{
closed = 1;
nodes = (
(100,50,l),
(100,483,l),
(400,483,l),
(400,50,l)
);
}
);
width = 500;
}
);
note = .notdef;
},
{
glyphname = uni001D;
layers = (
{
layerId = "6D7514A4-2FAB-465B-AF5F-621F801A1E4E";
shapes = (
{
closed = 1;
nodes = (
(221,612,l),
(372,604,o),
(620,591,o),
(608,591,cs),
(596,591,o),
(608,162,o),
(608,168,cs),
(608,174,o),
(221,168,o),
(221,168,c)
);
}
);
width = 1000;
}
);
note = uni001D;
},
{
glyphname = exclam;
lastChange = "2021-03-03 17:51:34 +0000";
layers = (
{
hints = (
{
horizontal = 1;
place = (-2, 133.27);
place = (-2, 133.27);
type = Stem;
},
{
place = (49.33, 137.67);
place = (49.33, 137.67);
type = Stem;
}
);
layerId = "6D7514A4-2FAB-465B-AF5F-621F801A1E4E";
shapes = (
{
closed = 1;
nodes = (
(49,45,o),
(55,29,o),
(67,17,cs),
(78,4,o),
(95,-2,o),
(118,-2,cs),
(140,-2,o),
(158,4,o),
(169,17,cs),
(181,29,o),
(187,45,o),
(187,64,cs),
(187,83,o),
(181,99,o),
(169,112,cs),
(158,125,o),
(140,131,o),
(118,131,cs),
(95,131,o),
(78,125,o),
(67,112,cs),
(55,99,o),
(49,83,o),
(49,64,cs)
);
},
{
closed = 1;
nodes = (
(177,201,l),
(154,650,l),
(71,650,l),
(51,201,l)
);
}
);
width = 238;
}
);
note = exclam;
unicode = 33;
},
{
glyphname = quotedbl;
lastChange = "2021-03-03 17:51:34 +0000";
layers = (
{
hints = (
{
horizontal = 1;
place = (481.77, 212.23);
place = (481.77, 212.23);
type = Stem;
},
{
place = (76.16, 60.15);
place = (76.16, 60.15);
type = Stem;
},
{
place = (75.73, 47.69);
place = (75.73, 47.69);
type = Stem;
},
{
place = (192.17, 60.14);
place = (192.17, 60.14);
type = Stem;
},
{
place = (191.74, 47.7);
place = (191.74, 47.7);
type = Stem;
}
);
layerId = "6D7514A4-2FAB-465B-AF5F-621F801A1E4E";
shapes = (
{
closed = 1;
nodes = (
(136,636,l),
(136,694,l),
(76,694,l),
(76,482,l),
(123,482,l)
);
},
{
closed = 1;
nodes = (
(252,636,l),
(252,694,l),
(192,694,l),
(192,482,l),
(239,482,l)
);
}
);
width = 308;
}
);
note = quotedbl;
unicode = 34;
},
{
glyphname = quotesingle;
lastChange = "2021-03-03 17:51:34 +0000";
layers = (
{
hints = (
{
horizontal = 1;
place = (487.43, 218.71);
place = (487.43, 218.71);
type = Stem;
},
{
place = (73.98, 77.77);
place = (73.98, 77.77);
type = Stem;
}
);
layerId = "6D7514A4-2FAB-465B-AF5F-621F801A1E4E";
shapes = (
{
closed = 1;
nodes = (
(77,487,l),
(98,505,o),
(116,528,o),
(130,557,cs),
(145,586,o),
(152,615,o),
(152,644,cs),
(152,706,l),
(74,706,l),
(74,634,ls),
(73,595,o),
(59,556,o),
(32,518,c)
);
}
);
width = 194;
}
);
note = quotesingle;
unicode = 39;
},
{
glyphname = parenleft;
lastChange = "2021-03-03 17:51:34 +0000";
layers = (
{
layerId = "6D7514A4-2FAB-465B-AF5F-621F801A1E4E";
shapes = (
{
closed = 1;
nodes = (
(22,236,o),
(40,116,o),
(94,10,cs),
(122,-44,o),
(153,-84,o),
(188,-110,c),
(211,-64,l),
(206,-59,o),
(201,-53,o),
(197,-47,cs),
(193,-41,o),
(190,-35,o),
(187,-29,cs),
(184,-24,o),
(181,-17,o),
(178,-9,cs),
(174,0,o),
(172,7,o),
(170,12,cs),
(168,18,o),
(165,26,o),
(162,36,cs),
(159,47,o),
(156,55,o),
(154,61,cs),
(140,113,o),
(131,160,o),
(126,202,cs),
(121,243,o),
(118,272,o),
(119,289,cs),
(120,306,o),
(121,328,o),
(124,354,cs),
(130,390,ls),
(136,425,o),
(140,450,o),
(144,467,cs),
(147,483,o),
(153,504,o),
(162,529,cs),
(171,554,o),
(183,579,o),
(197,604,cs),
(233,665,o),
(273,709,o),
(319,736,c),
(310,790,l),
(270,775,o),
(230,746,o),
(190,702,cs),
(149,658,o),
(116,608,o),
(91,551,cs),
(66,495,o),
(49,434,o),
(40,370,cs)
);
}
);
width = 366;
}
);
note = parenleft;
unicode = 40;
},
{
glyphname = parenright;
lastChange = "2021-03-03 17:51:34 +0000";
layers = (
{
hints = (
{
place = (164, 90.47);
place = (164, 90.47);
type = Stem;
}
);
layerId = "6D7514A4-2FAB-465B-AF5F-621F801A1E4E";
shapes = (
{
closed = 1;
nodes = (
(225,125,o),
(253,241,o),
(254,377,cs),
(255,441,o),
(247,504,o),
(230,563,cs),
(213,623,o),
(191,684,o),
(149,725,cs),
(108,765,o),
(119,753,o),
(85,778,c),
(69,727,l),
(98,699,o),
(113,666,o),
(127,630,cs),
(161,546,o),
(162,491,o),
(164,410,cs),
(164,373,ls),
(162,315,o),
(161,249,o),
(93,87,c),
(69,38,o),
(53,-2,o),
(20,-29,c),
(36,-78,l),
(74,-57,o),
(121,-21,o),
(156,28,cs)
);
}
);
width = 318;
}
);
note = parenright;
unicode = 41;
},
{
glyphname = period;
lastChange = "2021-03-03 17:51:34 +0000";
layers = (
{
hints = (
{
horizontal = 1;
place = (1.31, 94.53);
place = (1.31, 94.53);
type = Stem;
},
{
place = (44.4, 98.83);
place = (44.4, 98.83);
type = Stem;
}
);
layerId = "6D7514A4-2FAB-465B-AF5F-621F801A1E4E";
shapes = (
{
closed = 1;
nodes = (
(44,35,o),
(48,24,o),
(57,15,cs),
(65,6,o),
(77,1,o),
(93,1,cs),
(110,1,o),
(122,6,o),
(131,15,cs),
(139,24,o),
(143,35,o),
(143,48,cs),
(143,61,o),
(139,73,o),
(131,82,cs),
(122,91,o),
(110,96,o),
(93,96,cs),
(77,96,o),
(65,91,o),
(57,82,cs),
(48,73,o),
(44,61,o),
(44,48,cs)
);
}
);
width = 202;
}
);
note = period;
unicode = 46;
},
{
glyphname = zero;
lastChange = "2021-03-03 17:51:34 +0000";
layers = (
{
hints = (
{
horizontal = 1;
place = (-2.94, 153.85);
place = (-2.94, 153.85);
type = Stem;
},
{
horizontal = 1;
place = (574.56, 65.32);
place = (574.56, 65.32);
type = Stem;
},
{
place = (43.65, 89.49);
place = (43.65, 89.49);
type = Stem;
},
{
place = (369, 97.53);
place = (369, 97.53);
type = Stem;
}
);
layerId = "6D7514A4-2FAB-465B-AF5F-621F801A1E4E";
shapes = (
{
closed = 1;
nodes = (
(467,376,ls),
(466,466,o),
(449,532,o),
(418,575,cs),
(402,596,o),
(379,612,o),
(349,623,cs),
(319,634,o),
(286,640,o),
(251,640,cs),
(216,640,o),
(185,634,o),
(157,623,cs),
(129,611,o),
(107,595,o),
(91,573,cs),
(60,528,o),
(44,460,o),
(44,368,cs),
(44,262,ls),
(45,174,o),
(61,108,o),
(93,63,cs),
(109,42,o),
(131,25,o),
(159,14,cs),
(187,3,o),
(218,-3,o),
(252,-3,cs),
(275,-3,o),
(297,0,o),
(318,4,cs),
(339,9,o),
(359,17,o),
(377,27,cs),
(394,38,o),
(409,50,o),
(419,65,cs),
(451,110,o),
(467,179,o),
(467,273,cs)
);
},
{
closed = 1;
nodes = (
(369,340,ls),
(368,275,o),
(358,227,o),
(339,196,cs),
(320,166,o),
(291,151,o),
(252,151,cs),
(212,151,o),
(182,167,o),
(163,199,cs),
(143,231,o),
(133,281,o),
(133,349,cs),
(133,387,ls),
(134,451,o),
(143,498,o),
(162,529,cs),
(181,559,o),
(210,575,o),
(251,575,cs),
(292,575,o),
(322,559,o),
(341,528,cs),
(360,498,o),
(369,449,o),
(369,381,cs)
);
}
);
width = 536;
}
);
note = zero;
unicode = 48;
},
{
glyphname = one;
lastChange = "2021-03-03 17:51:34 +0000";
layers = (
{
hints = (
{
horizontal = 1;
place = (472.3, 21);
target = up;
type = BottomGhost;
},
{
horizontal = 1;
place = (627, -20);
target = down;
type = TopGhost;
},
{
place = (202.27, 125.93);
place = (202.27, 125.93);
type = Stem;
},
{
place = (227.27, 79.93);
place = (227.27, 79.93);
type = Stem;
}
);
layerId = "6D7514A4-2FAB-465B-AF5F-621F801A1E4E";
shapes = (
{
closed = 1;
nodes = (
(328,0,l),
(307,627,l),
(295,627,l),
(67,541,l),
(67,472,l),
(227,545,l),
(202,-2,l)
);
}
);
width = 450;
}
);
note = one;
unicode = 49;
},
{
glyphname = two;
lastChange = "2021-03-03 17:51:34 +0000";
layers = (
{
hints = (
{
horizontal = 1;
place = (-0.44, 143.88);
place = (-0.44, 143.88);
type = Stem;
},
{
horizontal = 1;
place = (568.46, 65.32);
place = (568.46, 65.32);
type = Stem;
},
{
place = (50, 77);
place = (50, 77);
type = Stem;
},
{
place = (367.65, 79.93);
place = (367.65, 79.93);
type = Stem;
}
);
layerId = "6D7514A4-2FAB-465B-AF5F-621F801A1E4E";
shapes = (
{
closed = 1;
nodes = (
(462,0,l),
(476,143,l),
(247,143,l),
(330,246,l),
(408,331,o),
(448,405,o),
(448,466,cs),
(448,517,o),
(431,558,o),
(397,588,cs),
(363,619,o),
(317,634,o),
(259,634,cs),
(201,634,o),
(151,616,o),
(110,580,cs),
(95,568,o),
(83,554,o),
(74,538,cs),
(65,523,o),
(57,502,o),
(50,474,c),
(127,434,l),
(136,483,o),
(149,517,o),
(167,535,cs),
(189,557,o),
(219,568,o),
(259,568,cs),
(292,568,o),
(318,558,o),
(338,537,cs),
(358,516,o),
(368,489,o),
(368,457,cs),
(368,432,o),
(362,409,o),
(349,386,cs),
(337,363,o),
(315,334,o),
(283,297,cs),
(66,57,l),
(66,0,l)
);
}
);
width = 578;
}
);
note = two;
unicode = 50;
},
{
glyphname = three;
lastChange = "2021-03-03 17:51:34 +0000";
layers = (
{
hints = (
{
horizontal = 1;
place = (-2.94, 121.88);
place = (-2.94, 121.88);
type = Stem;
},
{
horizontal = 1;
place = (292.25, 75.89);
place = (292.25, 75.89);
type = Stem;
},
{
horizontal = 1;
place = (470, 21);
target = up;
type = BottomGhost;
},
{
horizontal = 1;
place = (580.56, 59.31);
place = (580.56, 59.31);
type = Stem;
},
{
place = (348.61, 93.46);
place = (348.61, 93.46);
type = Stem;
},
{
place = (346.16, 79.49);
place = (346.16, 79.49);
type = Stem;
}
);
layerId = "6D7514A4-2FAB-465B-AF5F-621F801A1E4E";
shapes = (
{
closed = 1;
nodes = (
(166,368,l),
(166,292,l),
(225,292,ls),
(268,292,o),
(300,282,o),
(322,262,cs),
(340,247,o),
(349,230,o),
(349,210,cs),
(349,196,o),
(347,185,o),
(344,176,cs),
(341,168,o),
(335,159,o),
(325,149,cs),
(305,129,o),
(275,119,o),
(237,119,cs),
(201,119,o),
(172,129,o),
(151,149,cs),
(129,168,o),
(116,190,o),
(109,215,c),
(39,127,l),
(41,119,o),
(44,113,o),
(47,107,cs),
(49,101,o),
(52,96,o),
(55,91,cs),
(58,86,o),
(60,82,o),
(62,79,cs),
(64,76,o),
(67,73,o),
(70,69,cs),
(73,65,o),
(76,63,o),
(77,61,cs),
(79,60,o),
(81,57,o),
(85,53,cs),
(90,49,o),
(92,46,o),
(94,45,cs),
(125,13,o),
(173,-3,o),
(237,-3,cs),
(300,-3,o),
(350,14,o),
(387,46,cs),
(424,79,o),
(442,124,o),
(442,180,cs),
(442,226,o),
(433,261,o),
(414,286,cs),
(400,305,o),
(372,321,o),
(327,335,c),
(339,340,o),
(349,344,o),
(356,348,cs),
(363,351,o),
(371,356,o),
(379,362,cs),
(387,369,o),
(394,376,o),
(399,384,cs),
(417,409,o),
(426,436,o),
(426,463,cs),
(426,518,o),
(409,562,o),
(375,593,cs),
(342,624,o),
(296,640,o),
(237,640,cs),
(173,640,o),
(127,623,o),
(98,591,cs),
(82,571,o),
(71,557,o),
(66,549,cs),
(60,540,o),
(55,526,o),
(48,507,c),
(118,470,l),
(118,471,o),
(119,475,o),
(121,480,cs),
(122,486,o),
(123,490,o),
(124,491,cs),
(124,493,o),
(125,496,o),
(127,501,cs),
(128,506,o),
(129,509,o),
(130,511,cs),
(131,513,o),
(132,515,o),
(134,520,cs),
(135,524,o),
(137,527,o),
(138,529,cs),
(139,531,o),
(141,533,o),
(142,536,cs),
(144,539,o),
(146,542,o),
(148,544,cs),
(150,547,o),
(152,549,o),
(154,551,cs),
(175,571,o),
(202,581,o),
(237,581,cs),
(274,581,o),
(302,573,o),
(320,558,cs),
(337,543,o),
(346,517,o),
(346,482,cs),
(346,445,o),
(335,417,o),
(314,398,cs),
(292,379,o),
(263,369,o),
(225,368,cs)
);
}
);
width = 520;
}
);
note = three;
unicode = 51;
},
{
glyphname = four;
lastChange = "2021-03-03 17:51:34 +0000";
layers = (
{
hints = (
{
horizontal = 1;
place = (0.65, 21);
target = up;
type = BottomGhost;
},
{
horizontal = 1;
place = (145.89, 64.88);
place = (145.89, 64.88);
type = Stem;
},
{
horizontal = 1;
place = (626.28, -20);
target = down;
type = TopGhost;
},
{
place = (310.91, 99.92);
place = (310.91, 99.92);
type = Stem;
},
{
place = (320.91, 75.92);
place = (320.91, 75.92);
type = Stem;
}
);
layerId = "6D7514A4-2FAB-465B-AF5F-621F801A1E4E";
shapes = (
{
closed = 1;
nodes = (
(411,211,l),
(397,626,l),
(312,626,l),
(32,193,l),
(32,146,l),
(309,146,l),
(296,1,l),
(430,1,l),
(412,146,l),
(484,146,l),
(484,211,l)
);
},
{
closed = 1;
nodes = (
(109,211,l),
(311,516,l),
(321,534,l),
(311,211,l)
);
}
);
width = 538;
}
);
note = four;
unicode = 52;
},
{
glyphname = five;
lastChange = "2021-03-03 17:51:34 +0000";
layers = (
{
hints = (
{
horizontal = 1;
place = (-2.97, 130.91);
place = (-2.97, 130.91);
type = Stem;
},
{
horizontal = 1;
place = (351, 63.33);
place = (351, 63.33);
type = Stem;
},
{
horizontal = 1;
place = (557.84, 73.48);
place = (557.84, 73.48);
type = Stem;
},
{
place = (352.22, 109.51);
place = (352.22, 109.51);
type = Stem;
}
);
layerId = "6D7514A4-2FAB-465B-AF5F-621F801A1E4E";
shapes = (
{
closed = 1;
nodes = (
(65,319,l),
(129,303,l),
(150,320,ls),
(169,335,o),
(197,351,o),
(231,351,cs),
(269,351,o),
(299,338,o),
(322,313,cs),
(345,288,o),
(352,269,o),
(352,240,cs),
(352,217,o),
(346,191,o),
(325,166,cs),
(304,141,o),
(284,128,o),
(238,128,cs),
(204,128,o),
(191,130,o),
(166,141,cs),
(149,149,o),
(126,170,o),
(111,179,c),
(43,109,l),
(61,85,o),
(67,74,o),
(102,43,cs),
(137,12,o),
(182,-3,o),
(238,-3,cs),
(300,-3,o),
(375,16,o),
(410,53,cs),
(444,90,o),
(462,141,o),
(462,205,cs),
(462,269,o),
(445,320,o),
(411,358,cs),
(378,395,o),
(333,414,o),
(276,414,cs),
(237,414,o),
(176,405,o),
(145,387,c),
(164,558,l),
(403,558,l),
(417,631,l),
(97,631,l)
);
}
);
width = 556;
}
);
note = five;
unicode = 53;
},
{
glyphname = six;
lastChange = "2021-03-03 17:51:34 +0000";
layers = (
{
hints = (
{
horizontal = 1;
place = (-2.93, 121.73);
place = (-2.93, 121.73);
type = Stem;
},
{
horizontal = 1;
place = (359.83, 66.17);
place = (359.83, 66.17);
type = Stem;
},
{
horizontal = 1;
place = (574.25, 67.46);
place = (574.25, 67.46);
type = Stem;
},
{
place = (34.25, 79.92);
place = (34.25, 79.92);
type = Stem;
},
{
place = (345.93, 100.63);
place = (345.93, 100.63);
type = Stem;
}
);
layerId = "6D7514A4-2FAB-465B-AF5F-621F801A1E4E";
shapes = (
{
closed = 1;
nodes = (
(341,642,l),
(327,642,ls),
(230,640,o),
(157,609,o),
(108,548,cs),
(59,487,o),
(34,399,o),
(34,284,cs),
(34,244,ls),
(34,171,o),
(53,112,o),
(90,66,cs),
(127,20,o),
(193,-3,o),
(253,-3,cs),
(312,-3,o),
(359,16,o),
(394,55,cs),
(429,94,o),
(447,145,o),
(447,210,cs),
(447,270,o),
(430,330,o),
(398,368,cs),
(365,407,o),
(322,426,o),
(267,426,cs),
(210,426,o),
(148,407,o),
(115,369,c),
(121,434,o),
(142,484,o),
(179,519,cs),
(216,555,o),
(258,573,o),
(320,574,cs),
(321,574,l)
);
},
{
closed = 1;
nodes = (
(271,360,o),
(299,347,o),
(320,320,cs),
(341,294,o),
(346,258,o),
(346,238,cs),
(346,217,o),
(333,171,o),
(319,151,cs),
(304,130,o),
(281,119,o),
(236,119,cs),
(178,119,o),
(167,135,o),
(149,154,cs),
(131,173,o),
(114,207,o),
(114,245,cs),
(114,274,l),
(123,299,o),
(139,319,o),
(162,335,cs),
(185,352,o),
(210,360,o),
(237,360,cs)
);
}
);
width = 502;
}
);
note = six;
unicode = 54;
},
{
glyphname = seven;
lastChange = "2021-03-03 17:51:34 +0000";
layers = (
{
hints = (
{
horizontal = 1;
place = (0.06, 21);
target = up;
type = BottomGhost;
},
{
horizontal = 1;
place = (560.37, 65.31);
place = (560.37, 65.31);
type = Stem;
}
);
layerId = "6D7514A4-2FAB-465B-AF5F-621F801A1E4E";
shapes = (
{
closed = 1;
nodes = (
(456,581,l),
(456,626,l),
(33,626,l),
(33,560,l),
(371,560,l),
(70,0,l),
(255,0,l)
);
}
);
width = 482;
}
);
note = seven;
unicode = 55;
},
{
glyphname = eight;
lastChange = "2021-03-03 17:51:34 +0000";
layers = (
{
hints = (
{
horizontal = 1;
place = (-2.94, 127.88);
place = (-2.94, 127.88);
type = Stem;
},
{
horizontal = 1;
place = (333.83, 57.32);
place = (333.83, 57.32);
type = Stem;
},
{
horizontal = 1;
place = (605.56, 34.31);
place = (605.56, 34.31);
type = Stem;
},
{
place = (65.55, 79.49);
place = (65.55, 79.49);
type = Stem;
},
{
place = (354.73, 79.49);
place = (354.73, 79.49);
type = Stem;
},
{
place = (26.94, 102.51);
place = (26.94, 102.51);
type = Stem;
},
{
place = (369.34, 99.49);
place = (369.34, 99.49);
type = Stem;
}
);
layerId = "6D7514A4-2FAB-465B-AF5F-621F801A1E4E";
shapes = (
{
closed = 1;
nodes = (
(434,516,o),
(432,531,o),
(428,543,cs),
(424,555,o),
(419,565,o),
(412,573,cs),
(406,581,o),
(396,591,o),
(383,602,cs),
(356,627,o),
(311,640,o),
(250,640,cs),
(188,640,o),
(144,627,o),
(116,602,cs),
(97,585,o),
(84,570,o),
(77,556,cs),
(69,543,o),
(66,524,o),
(66,499,cs),
(66,468,o),
(74,440,o),
(90,416,cs),
(106,392,o),
(128,373,o),
(155,359,c),
(105,337,o),
(73,317,o),
(60,297,cs),
(38,265,o),
(27,234,o),
(27,206,cs),
(27,171,o),
(30,142,o),
(37,117,cs),
(44,92,o),
(58,68,o),
(81,45,cs),
(97,29,o),
(121,17,o),
(153,9,cs),
(184,1,o),
(217,-3,o),
(250,-3,cs),
(283,-3,o),
(314,1,o),
(344,9,cs),
(375,17,o),
(398,29,o),
(414,45,cs),
(427,59,o),
(438,72,o),
(446,85,cs),
(454,98,o),
(460,112,o),
(463,128,cs),
(466,143,o),
(468,155,o),
(468,164,cs),
(469,173,o),
(469,186,o),
(469,206,cs),
(469,235,o),
(458,265,o),
(435,297,cs),
(421,318,o),
(390,338,o),
(343,358,c),
(371,372,o),
(393,391,o),
(410,416,cs),
(426,440,o),
(434,468,o),
(434,499,cs)
);
},
{
closed = 1;
nodes = (
(369,190,o),
(359,167,o),
(338,146,cs),
(324,132,o),
(295,125,o),
(250,125,cs),
(205,125,o),
(176,132,o),
(162,145,cs),
(140,167,o),
(129,190,o),
(129,215,cs),
(129,250,o),
(141,279,o),
(163,301,cs),
(185,323,o),
(213,334,o),
(249,334,cs),
(285,334,o),
(314,323,o),
(336,301,cs),
(358,279,o),
(369,250,o),
(369,215,cs)
);
},
{
closed = 1;
nodes = (
(280,606,o),
(305,596,o),
(325,575,cs),
(345,555,o),
(355,530,o),
(355,498,cs),
(355,466,o),
(345,440,o),
(326,421,cs),
(307,401,o),
(282,391,o),
(250,391,cs),
(218,391,o),
(193,401,o),
(174,421,cs),
(155,440,o),
(145,466,o),
(145,498,cs),
(145,531,o),
(155,557,o),
(174,577,cs),
(193,596,o),
(219,606,o),
(250,606,cs)
);
}
);
width = 524;
}
);
note = eight;
unicode = 56;
},
{
glyphname = nine;
lastChange = "2021-03-03 17:51:34 +0000";
layers = (
{
hints = (
{
horizontal = 1;
place = (-2.5, 130.5);
place = (-2.5, 130.5);
type = Stem;
},
{
horizontal = 1;
place = (207.24, 94.69);
place = (207.24, 94.69);
type = Stem;
},
{
horizontal = 1;
place = (594.99, 37.15);
place = (594.99, 37.15);
type = Stem;
},
{
place = (45, 78.16);
place = (45, 78.16);
type = Stem;
},
{
place = (359.06, 79.53);
place = (359.06, 79.53);
type = Stem;
}
);
layerId = "6D7514A4-2FAB-465B-AF5F-621F801A1E4E";
shapes = (
{
closed = 1;
nodes = (
(355,201,o),
(324,175,o),
(299,155,cs),
(270,132,o),
(215,128,o),
(150,128,cs),
(133,128,l),
(133,-3,l),
(149,-3,ls),
(246,-3,o),
(318,28,o),
(366,84,cs),
(415,140,o),
(439,229,o),
(439,350,cs),
(439,373,ls),
(439,453,o),
(421,516,o),
(385,563,cs),
(349,609,o),
(301,632,o),
(239,632,cs),
(200,632,o),
(166,623,o),
(137,606,cs),
(107,588,o),
(85,562,o),
(69,529,cs),
(53,495,o),
(45,457,o),
(45,416,cs),
(45,377,o),
(52,341,o),
(67,309,cs),
(81,277,o),
(102,252,o),
(129,234,cs),
(156,216,o),
(187,207,o),
(223,207,cs),
(251,207,o),
(276,213,o),
(299,225,cs),
(318,235,o),
(345,256,o),
(359,273,c)
);
},
{
closed = 1;
nodes = (
(185,302,o),
(166,316,o),
(146,343,cs),
(125,371,o),
(123,406,o),
(123,449,cs),
(123,493,o),
(134,528,o),
(155,555,cs),
(176,582,o),
(204,595,o),
(239,595,cs),
(274,595,o),
(302,579,o),
(325,546,cs),
(348,513,o),
(359,471,o),
(359,419,cs),
(359,387,l),
(345,341,o),
(304,302,o),
(245,302,cs)
);
}
);
width = 492;
}
);
note = nine;
unicode = 57;
},
{
glyphname = colon;
lastChange = "2021-03-03 17:51:34 +0000";
layers = (
{
hints = (
{
horizontal = 1;
place = (64.29, 114.25);
place = (64.29, 114.25);
type = Stem;
},
{
horizontal = 1;
place = (420.75, 114.25);
place = (420.75, 114.25);
type = Stem;
},
{
place = (25.4, 119.42);
place = (25.4, 119.42);
type = Stem;
}
);
layerId = "6D7514A4-2FAB-465B-AF5F-621F801A1E4E";
shapes = (
{
closed = 1;
nodes = (
(25,104,o),
(30,91,o),
(40,80,cs),
(50,70,o),
(65,64,o),
(85,64,cs),
(104,64,o),
(119,70,o),
(130,80,cs),
(140,91,o),
(145,104,o),
(145,120,cs),
(145,137,o),
(140,151,o),
(130,162,cs),
(119,173,o),
(104,179,o),
(85,179,cs),
(65,179,o),
(50,173,o),
(40,162,cs),
(30,151,o),
(25,137,o),
(25,120,cs)
);
},
{
closed = 1;
nodes = (
(26,461,o),
(31,448,o),
(41,437,cs),
(51,426,o),
(65,421,o),
(85,421,cs),
(105,421,o),
(120,426,o),
(130,437,cs),
(140,448,o),
(145,461,o),
(145,477,cs),
(145,493,o),
(140,507,o),
(130,518,cs),
(120,529,o),
(105,535,o),
(85,535,cs),
(65,535,o),
(51,529,o),
(41,518,cs),
(31,507,o),
(26,493,o),
(26,477,cs)
);
}
);
width = 206;
}
);
note = colon;
unicode = 58;
},
{
glyphname = semicolon;
lastChange = "2021-03-03 17:51:34 +0000";
layers = (
{
hints = (
{
horizontal = 1;
place = (502.73, 94.53);
place = (502.73, 94.53);
type = Stem;
},
{
place = (61.82, 77.77);
place = (61.82, 77.77);
type = Stem;
},
{
place = (49.83, 98.83);
place = (49.83, 98.83);
type = Stem;
}
);
layerId = "6D7514A4-2FAB-465B-AF5F-621F801A1E4E";
shapes = (
{
closed = 1;
nodes = (
(65,3,l),
(86,21,o),
(104,44,o),
(118,73,cs),
(133,102,o),
(140,131,o),
(140,160,cs),
(140,222,l),
(62,222,l),
(62,150,ls),
(61,111,o),
(47,72,o),
(20,34,c)
);
},
{
closed = 1;
nodes = (
(50,549,ls),
(50,536,o),
(54,525,o),
(62,516,cs),
(70,507,o),
(82,503,o),
(99,503,cs),
(115,503,o),
(128,507,o),
(136,516,cs),
(144,525,o),
(149,536,o),
(149,549,cs),
(149,563,o),
(144,574,o),
(136,584,cs),
(128,593,o),
(115,597,o),
(99,597,cs),
(82,597,o),
(70,593,o),
(62,584,cs),
(54,574,o),
(50,563,o),
(50,549,cs)
);
}
);
width = 212;
}
);
note = semicolon;
unicode = 59;
},
{
glyphname = question;
lastChange = "2021-03-03 17:51:34 +0000";
layers = (
{
hints = (
{
horizontal = 1;
place = (-12.93, 134);
place = (-12.93, 134);
type = Stem;
},
{
horizontal = 1;
place = (599.72, 57.61);
place = (599.72, 57.61);
type = Stem;
},
{
place = (105.86, 113.49);
place = (105.86, 113.49);
type = Stem;
},
{
place = (279.67, 79.49);
place = (279.67, 79.49);
type = Stem;
},
{
place = (96.07, 138.46);
place = (96.07, 138.46);
type = Stem;
}
);
layerId = "6D7514A4-2FAB-465B-AF5F-621F801A1E4E";
shapes = (
{
closed = 1;
nodes = (
(219,172,l),
(219,216,o),
(222,277,o),
(243,300,cs),
(290,346,ls),
(336,395,o),
(359,444,o),
(359,494,cs),
(359,545,o),
(344,585,o),
(314,614,cs),
(284,643,o),
(241,658,o),
(187,657,cs),
(135,657,o),
(108,643,o),
(86,627,cs),
(51,602,o),
(51,596,o),
(33,575,c),
(73,521,l),
(91,550,o),
(99,561,o),
(117,577,cs),
(135,592,o),
(158,600,o),
(187,600,cs),
(217,600,o),
(240,591,o),
(256,574,cs),
(272,557,o),
(280,534,o),
(280,504,cs),
(280,473,o),
(258,436,o),
(234,409,c),
(157,351,l),
(135,327,o),
(121,300,o),
(113,281,cs),
(106,261,o),
(106,206,o),
(106,172,c)
);
},
{
closed = 1;
nodes = (
(96,34,o),
(102,18,o),
(113,6,cs),
(125,-7,o),
(142,-13,o),
(165,-13,cs),
(188,-13,o),
(205,-7,o),
(217,6,cs),
(229,18,o),
(235,34,o),
(235,53,cs),
(235,73,o),
(229,89,o),
(217,102,cs),
(205,115,o),
(188,121,o),
(165,121,cs),
(142,121,o),
(125,115,o),
(113,102,cs),
(102,89,o),
(96,73,o),
(96,53,cs)
);
}
);
width = 432;
}
);
note = question;
unicode = 63;
},
{
glyphname = A;
lastChange = "2021-03-03 17:51:34 +0000";
layers = (
{
hints = (
{
horizontal = 1;
place = (-0.11, 21);
target = up;
type = BottomGhost;
},
{
horizontal = 1;
place = (84.53, 146.47);
place = (84.53, 146.47);
type = Stem;
},
{
horizontal = 1;
place = (625.27, -20);
target = down;
type = TopGhost;
}
);
layerId = "6D7514A4-2FAB-465B-AF5F-621F801A1E4E";
shapes = (
{
closed = 1;
nodes = (
(442,85,l),
(470,0,l),
(600,0,l),
(361,625,l),
(289,625,l),
(50,0,l),
(184,0,l),
(214,85,l)
);
},
{
closed = 1;
nodes = (
(238,231,l),
(325,523,l),
(405,231,l)
);
}
);
width = 650;
}
);
note = A;
unicode = 65;
},
{
glyphname = B;
lastChange = "2021-03-03 17:51:34 +0000";
layers = (
{
hints = (
{
horizontal = 1;
place = (0.06, 151.37);
place = (0.06, 151.37);
type = Stem;
},
{
horizontal = 1;
place = (292.5, 66.15);
place = (292.5, 66.15);
type = Stem;
},
{
horizontal = 1;
place = (561.9, 63.54);
place = (561.9, 63.54);
type = Stem;
},
{
place = (40.25, 82.26);
place = (40.25, 82.26);
type = Stem;
},
{
place = (366.13, 82.87);
place = (366.13, 82.87);
type = Stem;
}
);
layerId = "6D7514A4-2FAB-465B-AF5F-621F801A1E4E";
shapes = (
{
closed = 1;
nodes = (
(50,0,l),
(267,0,ls),
(302,0,o),
(335,4,o),
(367,12,cs),
(399,21,o),
(423,32,o),
(441,48,cs),
(477,80,o),
(495,124,o),
(496,180,cs),
(496,217,o),
(486,248,o),
(466,275,cs),
(450,297,o),
(417,315,o),
(366,329,c),
(395,341,o),
(417,359,o),
(434,381,cs),
(451,403,o),
(459,429,o),
(459,458,cs),
(459,513,o),
(442,555,o),
(408,583,cs),
(374,611,o),
(323,625,o),
(255,625,cs),
(50,625,l)
);
},
{
closed = 1;
nodes = (
(133,359,l),
(133,562,l),
(255,562,ls),
(296,562,o),
(326,554,o),
(346,538,cs),
(366,523,o),
(376,498,o),
(376,463,cs),
(376,429,o),
(365,404,o),
(344,386,cs),
(322,368,o),
(293,359,o),
(257,359,cs)
);
},
{
closed = 1;
nodes = (
(132,293,l),
(270,292,ls),
(315,292,o),
(348,287,o),
(367,275,cs),
(387,264,o),
(395,240,o),
(393,205,cs),
(391,187,o),
(380,173,o),
(358,163,cs),
(342,155,o),
(312,151,o),
(269,151,cs),
(132,151,l)
);
}
);
width = 526;
}
);
note = B;
unicode = 66;
},
{
glyphname = C;
lastChange = "2021-03-03 17:51:34 +0000";
layers = (
{
hints = (
{
horizontal = 1;
place = (-12, 150);
place = (-12, 150);
type = Stem;
},
{
horizontal = 1;
place = (563.38, 63.03);
place = (563.38, 63.03);
type = Stem;
},
{
place = (36.05, 82.36);
place = (36.05, 82.36);
type = Stem;
}
);
layerId = "6D7514A4-2FAB-465B-AF5F-621F801A1E4E";
shapes = (
{
closed = 1;
nodes = (
(361,-12,o),
(418,3,o),
(459,39,cs),
(500,74,o),
(524,104,o),
(537,170,c),
(431,217,l),
(404,165,o),
(387,159,o),
(375,152,cs),
(362,145,o),
(313,138,o),
(282,138,cs),
(256,138,o),
(195,169,o),
(175,197,cs),
(152,228,o),
(132,258,o),
(132,326,cs),
(132,336,ls),
(132,407,o),
(147,467,o),
(177,505,cs),
(207,544,o),
(248,563,o),
(300,563,cs),
(343,563,o),
(368,551,o),
(390,527,cs),
(414,500,o),
(431,477,o),
(447,424,c),
(537,451,l),
(508,521,o),
(499,534,o),
(459,571,cs),
(419,608,o),
(366,626,o),
(300,626,cs),
(250,626,o),
(207,615,o),
(169,591,cs),
(131,568,o),
(102,534,o),
(81,490,cs),
(60,446,o),
(50,396,o),
(50,338,cs),
(50,278,ls),
(50,190,o),
(69,117,o),
(113,64,cs),
(158,11,o),
(219,-12,o),
(293,-12,cs)
);
}
);
width = 587;
}
);
note = C;
unicode = 67;
},
{
glyphname = D;
lastChange = "2021-03-03 17:51:34 +0000";
layers = (
{
hints = (
{
horizontal = 1;
place = (-2.11, 150.43);
place = (-2.11, 150.43);
type = Stem;
},
{
horizontal = 1;
place = (559.83, 63.44);
place = (559.83, 63.44);
type = Stem;
},
{
place = (48.25, 88.47);
place = (48.25, 88.47);
type = Stem;
},
{
place = (424.93, 129.65);
place = (424.93, 129.65);
type = Stem;
}
);
layerId = "6D7514A4-2FAB-465B-AF5F-621F801A1E4E";
shapes = (
{
closed = 1;
nodes = (
(50,-2,l),
(223,-2,ls),
(280,-2,o),
(386,9,o),
(428,32,cs),
(470,56,o),
(502,89,o),
(524,134,cs),
(547,178,o),
(557,233,o),
(557,292,cs),
(557,332,ls),
(557,389,o),
(545,440,o),
(522,485,cs),
(499,529,o),
(467,563,o),
(425,587,cs),
(383,611,o),
(281,623,o),
(227,623,cs),
(50,623,l)
);
},
{
closed = 1;
nodes = (
(139,560,l),
(235,560,ls),
(296,560,o),
(344,539,o),
(377,500,cs),
(410,460,o),
(427,405,o),
(427,334,cs),
(427,289,ls),
(427,216,o),
(407,197,o),
(385,179,cs),
(356,154,o),
(289,148,o),
(225,148,cs),
(139,148,l)
);
}
);
width = 607;
}
);
note = D;
unicode = 68;
},
{
glyphname = E;
lastChange = "2021-03-03 17:51:34 +0000";
layers = (
{
hints = (
{
horizontal = 1;
place = (-0.11, 151.43);
place = (-0.11, 151.43);
type = Stem;
},
{
horizontal = 1;
place = (288.95, 67.44);
place = (288.95, 67.44);
type = Stem;
},
{
horizontal = 1;
place = (561.83, 63.44);
place = (561.83, 63.44);
type = Stem;
},
{
place = (38, 82.47);
place = (38, 82.47);
type = Stem;
}
);
layerId = "6D7514A4-2FAB-465B-AF5F-621F801A1E4E";
shapes = (
{
closed = 1;
nodes = (
(404,289,l),
(403,356,l),
(132,356,l),
(132,562,l),
(443,562,l),
(443,625,l),
(50,625,l),
(50,0,l),
(447,0,l),
(453,151,l),
(133,151,l),
(133,289,l)
);
}
);
width = 503;
}
);
note = E;
unicode = 69;
},
{
glyphname = F;
lastChange = "2021-03-03 17:51:34 +0000";
layers = (
{
hints = (
{
horizontal = 1;
place = (0.07, 21);
target = up;
type = BottomGhost;
},
{
horizontal = 1;
place = (272.91, 66.61);
place = (272.91, 66.61);
type = Stem;
},
{
horizontal = 1;
place = (551.26, 66.62);
place = (551.26, 66.62);
type = Stem;
},
{
place = (49.34, 82.47);
place = (49.34, 82.47);
type = Stem;
}
);
layerId = "6D7514A4-2FAB-465B-AF5F-621F801A1E4E";
shapes = (
{
closed = 1;
nodes = (
(398,273,l),
(398,340,l),
(144,340,l),
(139,551,l),
(440,551,l),
(440,618,l),
(61,618,l),
(50,0,l),
(180,0,l),
(150,273,l)
);
}
);
width = 510;
}
);
note = F;
unicode = 70;
},
{
glyphname = G;
layers = (
{
hints = (
{
horizontal = 1;
place = (-3.42, 149.62);
place = (-3.42, 149.62);
type = Stem;
},
{
horizontal = 1;
place = (232.08, 80.62);
place = (232.08, 80.62);
type = Stem;
},
{
horizontal = 1;
place = (569.69, 61.67);
place = (569.69, 61.67);
type = Stem;
},
{
place = (54.25, 81.9);
place = (54.25, 81.9);
type = Stem;
},
{
place = (449.29, 81.05);
place = (449.29, 81.05);
type = Stem;
}
);
layerId = "6D7514A4-2FAB-465B-AF5F-621F801A1E4E";
shapes = (
{
closed = 1;
nodes = (
(386,0,o),
(404,26,o),
(438,44,c),
(471,0,l),
(526,0,l),
(520,307,l),
(302,307,l),
(302,228,l),
(437,229,l),
(437,193,l),
(437,144,o),
(365,113,o),
(302,113,c),
(147,113,o),
(137,220,o),
(137,309,c),
(137,335,l),
(137,405,o),
(151,459,o),
(179,496,c),
(206,534,o),
(246,558,o),
(299,558,c),
(379,558,o),
(427,513,o),
(441,432,c),
(520,432,l),
(512,491,o),
(489,537,o),
(450,569,c),
(412,601,o),
(362,616,o),
(299,616,c),
(223,616,o),
(163,592,o),
(121,543,c),
(79,492,o),
(58,422,o),
(58,332,c),
(58,279,l),
(58,156,o),
(77,0,o),
(308,0,c)
);
}
);
width = 576;
}
);
note = G;
unicode = 71;
},
{
glyphname = H;
lastChange = "2021-03-03 17:51:34 +0000";
layers = (
{
hints = (
{
horizontal = 1;
place = (0.07, 21);
target = up;
type = BottomGhost;
},
{
horizontal = 1;
place = (236.64, 115.61);
place = (236.64, 115.61);
type = Stem;
},
{
horizontal = 1;
place = (617.88, -20);
target = down;
type = TopGhost;
},
{
place = (409.92, 129.9);
place = (409.92, 129.9);
type = Stem;
},
{
place = (36, 81.48);
place = (36, 81.48);
type = Stem;
},
{
place = (428.92, 81.9);
place = (428.92, 81.9);
type = Stem;
},
{
place = (20, 126.48);
place = (20, 126.48);
type = Stem;
}
);
layerId = "6D7514A4-2FAB-465B-AF5F-621F801A1E4E";
shapes = (
{
closed = 1;
nodes = (
(540,0,l),
(511,618,l),
(429,618,l),
(429,352,l),
(117,352,l),
(117,618,l),
(36,618,l),
(20,0,l),
(146,0,l),
(117,237,l),
(429,237,l),
(410,0,l)
);
}
);
width = 570;
}
);
note = H;
unicode = 72;
},
{
glyphname = I;
lastChange = "2021-03-03 17:51:34 +0000";
layers = (
{
hints = (
{
horizontal = 1;
place = (0.07, 21);
target = up;
type = BottomGhost;
},
{
horizontal = 1;
place = (617.88, -20);
target = down;
type = TopGhost;
},
{
place = (30.34, 125.47);
place = (30.34, 125.47);
type = Stem;
}
);
layerId = "6D7514A4-2FAB-465B-AF5F-621F801A1E4E";
shapes = (
{
closed = 1;
nodes = (
(176,0,l),
(158,618,l),
(86,618,l),
(65,0,l)
);
},
{
closed = 1;
nodes = (
(157,604,l),
(199,604,l),
(199,618,l),
(157,618,l)
);
},
{
closed = 1;
nodes = (
(30,558,l),
(86,558,l),
(86,618,l),
(30,618,l)
);
},
{
closed = 1;
nodes = (
(158,558,l),
(214,558,l),
(214,618,l),
(158,618,l)
);
},
{
closed = 1;
nodes = (
(19,1,l),
(86,0,l),
(86,60,l),
(19,61,l)
);
},
{
closed = 1;
nodes = (
(158,0,l),
(217,0,l),
(217,60,l),
(158,60,l)
);
}
);
width = 224;
}
);
note = I;
unicode = 73;
},
{
glyphname = J;
lastChange = "2021-03-03 17:51:34 +0000";
layers = (
{
hints = (
{
horizontal = 1;
place = (-2.42, 148.62);
place = (-2.42, 148.62);
type = Stem;
},
{
horizontal = 1;
place = (623.88, -20);
target = down;
type = TopGhost;
},
{
place = (368.79, 81.9);
place = (368.79, 81.9);
type = Stem;
}
);
layerId = "6D7514A4-2FAB-465B-AF5F-621F801A1E4E";
shapes = (
{
closed = 1;
nodes = (
(401,624,l),
(365,236,ls),
(362,202,o),
(356,179,o),
(339,167,cs),
(319,153,o),
(291,146,o),
(253,146,cs),
(212,146,o),
(183,153,o),
(166,166,cs),
(156,174,o),
(145,187,o),
(134,205,c),
(50,161,l),
(56,132,o),
(62,109,o),
(70,93,cs),
(79,76,o),
(91,60,o),
(108,45,cs),
(142,13,o),
(190,-2,o),
(252,-2,cs),
(311,-2,o),
(358,14,o),
(393,48,cs),
(429,81,o),
(442,127,o),
(447,186,cs),
(483,624,l)
);
}
);
width = 552;
}
);
note = J;
unicode = 74;
},
{
glyphname = K;
lastChange = "2021-03-03 17:51:34 +0000";
layers = (
{
hints = (
{
horizontal = 1;
place = (0, 21);
target = up;
type = BottomGhost;
},
{
horizontal = 1;
place = (617.88, -20);
target = down;
type = TopGhost;
},
{
place = (82.72, 81.46);
place = (82.72, 81.46);
type = Stem;
},
{
place = (58.72, 125.46);
place = (58.72, 125.46);
type = Stem;
}
);
layerId = "6D7514A4-2FAB-465B-AF5F-621F801A1E4E";
shapes = (
{
closed = 1;
nodes = (
(235,282,l),
(437,0,l),
(596,0,l),
(288,335,l),
(537,618,l),
(439,618,l),
(164,312,l),
(164,618,l),
(83,618,l),
(59,0,l),
(184,0,l),
(164,209,l)
);
}
);
width = 630;
}
);
note = K;
unicode = 75;
},
{
glyphname = L;
lastChange = "2021-03-03 17:51:34 +0000";
layers = (
{
hints = (
{
horizontal = 1;
place = (0.07, 150.62);
place = (0.07, 150.62);
type = Stem;
},
{
horizontal = 1;
place = (617.88, -20);
target = down;
type = TopGhost;
},
{
place = (36.05, 89.89);
place = (36.05, 89.89);
type = Stem;
},
{
place = (36.05, 81.89);
place = (36.05, 81.89);
type = Stem;
}
);
layerId = "6D7514A4-2FAB-465B-AF5F-621F801A1E4E";
shapes = (
{
closed = 1;
nodes = (
(126,151,l),
(118,618,l),
(36,618,l),
(36,0,l),
(411,0,l),
(417,151,l)
);
}
);
width = 470;
}
);
note = L;
unicode = 76;
},
{
glyphname = M;
lastChange = "2021-03-03 17:51:34 +0000";
layers = (
{
hints = (
{
horizontal = 1;
place = (0.07, 21);
target = up;
type = BottomGhost;
},
{
horizontal = 1;
place = (617.88, -20);
target = down;
type = TopGhost;
},
{
place = (75, 73.37);
place = (75, 73.37);
type = Stem;
},
{
place = (579.33, 127.47);
place = (579.33, 127.47);
type = Stem;
},
{
place = (48, 111.43);
place = (48, 111.43);
type = Stem;
}
);
layerId = "6D7514A4-2FAB-465B-AF5F-621F801A1E4E";
shapes = (
{
closed = 1;
nodes = (
(180,618,l),
(75,618,l),
(48,0,l),
(172,0,l),
(159,241,l),
(148,499,l),
(318,0,l),
(444,0,l),
(616,500,l),
(601,241,l),
(579,0,l),
(707,0,l),
(690,618,l),
(584,618,l),
(382,159,l)
);
}
);
width = 780;
}
);
note = M;
unicode = 77;
},
{
glyphname = N;
lastChange = "2021-03-03 17:51:34 +0000";
layers = (
{
hints = (
{
horizontal = 1;
place = (0.07, 21);
target = up;
type = BottomGhost;
},
{
horizontal = 1;
place = (617.88, -20);
target = down;
type = TopGhost;
},
{
place = (79.72, 81.91);
place = (79.72, 81.91);
type = Stem;
},
{
place = (473.48, 86.05);
place = (473.48, 86.05);
type = Stem;
},
{
place = (56.72, 125.91);
place = (56.72, 125.91);
type = Stem;
}
);
layerId = "6D7514A4-2FAB-465B-AF5F-621F801A1E4E";
shapes = (
{
closed = 1;
nodes = (
(560,0,l),
(554,618,l),
(473,618,l),
(473,156,l),
(162,618,l),
(80,618,l),
(57,0,l),
(183,0,l),
(162,476,l),
(434,0,l)
);
}
);
width = 628;
}
);
note = N;
unicode = 78;
},
{
glyphname = O;
layers = (
{
hints = (
{
horizontal = 1;
place = (-3.42, 151.14);
place = (-3.42, 151.14);
type = Stem;
},
{
horizontal = 1;
place = (566.32, 65.04);
place = (566.32, 65.04);
type = Stem;
},
{
place = (46.41, 81.04);
place = (46.41, 81.04);
type = Stem;
},
{
place = (462.24, 81.04);
place = (462.24, 81.04);
type = Stem;
}
);
layerId = "6D7514A4-2FAB-465B-AF5F-621F801A1E4E";
shapes = (
{
closed = 1;
nodes = (
(406,328,l),
(406,399,o),
(391,454,o),
(363,492,c),
(334,530,o),
(294,549,o),
(243,549,c),
(193,549,o),
(153,530,o),
(125,492,c),
(96,454,o),
(81,401,o),
(80,333,c),
(80,325,l),
(80,272,o),
(85,248,o),
(114,208,c),
(143,169,o),
(193,149,o),
(244,149,c),
(295,149,o),
(344,168,o),
(372,205,c),
(400,242,o),
(407,272,o),
(406,319,c)
);
},
{
closed = 1;
nodes = (
(484,289,l),
(484,230,o),
(475,179,o),
(455,135,c),
(435,91,o),
(414,58,o),
(378,35,c),
(341,12,o),
(296,0,o),
(244,0,c),
(189,0,o),
(147,12,o),
(111,35,c),
(74,58,o),
(53,91,o),
(33,134,c),
(12,177,o),
(2,227,o),
(1,284,c),
(1,327,l),
(1,385,o),
(12,436,o),
(32,480,c),
(52,524,o),
(80,558,o),
(117,582,c),
(153,605,o),
(195,617,o),
(243,617,c),
(291,617,o),
(333,605,o),
(370,582,c),
(407,559,o),
(435,525,o),
(455,481,c),
(475,437,o),
(484,386,o),
(484,327,c)
);
}
);
width = 602;
}
);
note = O;
unicode = 79;
},
{
glyphname = P;
lastChange = "2021-03-03 17:51:34 +0000";
layers = (
{
hints = (
{
horizontal = 1;
place = (0.07, 21);
target = up;
type = BottomGhost;
},
{
horizontal = 1;
place = (241.93, 96.62);
place = (241.93, 96.62);
type = Stem;
},
{
horizontal = 1;
place = (551.26, 66.62);
place = (551.26, 66.62);
type = Stem;
},
{
place = (88, 85.43);
place = (88, 85.43);
type = Stem;
},
{
place = (415.75, 112.47);
place = (415.75, 112.47);
type = Stem;
},
{
place = (60, 121.43);
place = (60, 121.43);
type = Stem;
}
);
layerId = "6D7514A4-2FAB-465B-AF5F-621F801A1E4E";
shapes = (
{
closed = 1;
nodes = (
(177,242,l),
(311,242,ls),
(381,242,o),
(435,258,o),
(472,290,cs),
(509,323,o),
(528,369,o),
(528,429,cs),
(528,486,o),
(509,532,o),
(471,566,cs),
(432,601,o),
(379,618,o),
(312,618,cs),
(88,618,l),
(60,0,l),
(181,0,l)
);
},
{
closed = 1;
nodes = (
(173,339,l),
(178,551,l),
(284,551,ls),
(327,550,o),
(360,539,o),
(383,517,cs),
(395,505,o),
(404,494,o),
(409,484,cs),
(413,473,o),
(416,459,o),
(416,441,cs),
(416,423,o),
(413,409,o),
(409,400,cs),
(404,391,o),
(396,381,o),
(383,369,cs),
(360,349,o),
(325,339,o),
(280,339,cs)
);
}
);
width = 600;
}
);
note = P;
unicode = 80;
},
{
glyphname = Q;
lastChange = "2021-03-03 17:51:34 +0000";
layers = (
{
hints = (
{
horizontal = 1;
place = (-21.42, 150.14);
place = (-21.42, 150.14);
type = Stem;
},
{
horizontal = 1;
place = (550.32, 63.04);
place = (550.32, 63.04);
type = Stem;
},
{
place = (46.29, 81.44);
place = (46.29, 81.44);
type = Stem;
},
{
place = (462.09, 81.47);
place = (462.09, 81.47);
type = Stem;
}
);
layerId = "6D7514A4-2FAB-465B-AF5F-621F801A1E4E";
shapes = (
{
closed = 1;
nodes = (
(544,315,ls),
(544,376,o),
(533,428,o),
(513,474,cs),
(493,519,o),
(464,553,o),
(426,577,cs),
(388,601,o),
(344,613,o),
(295,613,cs),
(246,613,o),
(203,601,o),
(165,577,cs),
(127,553,o),
(98,518,o),
(77,472,cs),
(57,427,o),
(46,374,o),
(46,315,cs),
(46,271,ls),
(47,212,o),
(55,158,o),
(75,114,cs),
(96,69,o),
(125,35,o),
(163,11,cs),
(201,-12,o),
(247,-21,o),
(295,-21,cs),
(318,-21,o),
(328,-20,o),
(348,-15,c),
(462,-119,l),
(555,-60,l),
(447,30,l),
(481,54,o),
(499,76,o),
(518,119,cs),
(537,162,o),
(544,216,o),
(544,276,cs)
);
},
{
closed = 1;
nodes = (
(462,345,ls),
(461,273,o),
(446,225,o),
(418,186,cs),
(389,148,o),
(348,129,o),
(295,129,cs),
(243,129,o),
(202,149,o),
(172,190,cs),
(143,231,o),
(128,275,o),
(128,346,cs),
(128,381,ls),
(128,458,o),
(157,491,o),
(173,508,cs),
(190,526,o),
(243,550,o),
(294,550,cs),
(348,550,o),
(400,529,o),
(416,509,cs),
(432,489,o),
(462,449,o),
(462,376,cs)
);
}
);
width = 620;
}
);
note = Q;
unicode = 81;
},
{
glyphname = R;
lastChange = "2021-03-03 17:51:34 +0000";
layers = (
{
hints = (
{
horizontal = 1;
place = (1.07, 21);
target = up;
type = BottomGhost;
},
{
horizontal = 1;
place = (251, 102.61);
place = (251, 102.61);
type = Stem;
},
{
horizontal = 1;
place = (575.26, 43.63);
place = (575.26, 43.63);
type = Stem;
},
{
place = (73.62, 81.9);
place = (73.62, 81.9);
type = Stem;
},
{
place = (384.08, 110.92);
place = (384.08, 110.92);
type = Stem;
},
{
place = (52.62, 127.9);
place = (52.62, 127.9);
type = Stem;
}
);
layerId = "6D7514A4-2FAB-465B-AF5F-621F801A1E4E";
shapes = (
{
closed = 1;
nodes = (
(301,251,l),
(417,1,l),
(545,1,l),
(545,6,l),
(377,268,l),
(414,283,o),
(443,304,o),
(464,332,cs),
(485,361,o),
(495,395,o),
(495,433,cs),
(495,494,o),
(476,540,o),
(439,571,cs),
(401,603,o),
(348,619,o),
(278,619,cs),
(74,619,l),
(53,1,l),
(181,1,l),
(163,251,l)
);
},
{
closed = 1;
nodes = (
(156,354,l),
(156,575,l),
(251,575,ls),
(276,575,o),
(296,574,o),
(311,571,cs),
(327,568,o),
(340,561,o),
(350,552,cs),
(362,541,o),
(371,530,o),
(376,518,cs),
(381,507,o),
(384,492,o),
(384,473,cs),
(384,435,o),
(372,406,o),
(348,385,cs),
(324,364,o),
(292,354,o),
(252,354,cs)
);
}
);
width = 600;
}
);
note = R;
unicode = 82;
},
{
glyphname = S;
lastChange = "2021-03-03 17:51:34 +0000";
layers = (
{
hints = (
{
horizontal = 1;
place = (-9.42, 148.62);
place = (-9.42, 148.62);
type = Stem;
},
{
horizontal = 1;
place = (562.74, 62.62);
place = (562.74, 62.62);
type = Stem;
},
{
place = (74.72, 82.28);
place = (74.72, 82.28);
type = Stem;
},
{
place = (402, 102.12);
place = (402, 102.12);
type = Stem;
}
);
layerId = "6D7514A4-2FAB-465B-AF5F-621F801A1E4E";
shapes = (
{
closed = 1;
nodes = (
(331,266,o),
(357,256,o),
(379,240,cs),
(397,228,o),
(402,213,o),
(402,201,cs),
(402,191,o),
(404,176,o),
(380,161,cs),
(364,151,o),
(339,139,o),
(293,139,cs),
(244,139,o),
(221,155,o),
(210,167,cs),
(201,177,o),
(188,196,o),
(181,220,c),
(43,168,l),
(53,128,o),
(65,110,o),
(85,82,cs),
(105,54,o),
(133,31,o),
(170,15,cs),
(207,-1,o),
(247,-9,o),
(289,-9,cs),
(354,-9,o),
(407,6,o),
(446,36,cs),
(485,66,o),
(504,106,o),
(504,156,cs),
(504,188,o),
(497,215,o),
(483,238,cs),
(469,261,o),
(448,281,o),
(419,299,cs),
(390,316,o),
(349,332,o),
(298,347,cs),
(247,361,o),
(210,377,o),
(189,394,cs),
(168,412,o),
(157,433,o),
(157,458,cs),
(157,490,o),
(168,518,o),
(191,536,cs),
(213,554,o),
(245,563,o),
(285,563,cs),
(328,563,o),
(362,552,o),
(385,531,cs),
(409,509,o),
(421,489,o),
(434,443,c),
(503,472,l),
(490,508,o),
(486,516,o),
(475,533,cs),
(457,562,o),
(431,584,o),
(398,601,cs),
(365,617,o),
(327,625,o),
(285,625,cs),
(223,625,o),
(172,609,o),
(133,578,cs),
(94,546,o),
(75,506,o),
(75,457,cs),
(75,414,o),
(91,378,o),
(122,348,cs),
(154,319,o),
(205,303,o),
(275,282,cs)
);
}
);
width = 560;
}
);
note = S;
unicode = 83;
},
{
glyphname = T;
lastChange = "2021-03-03 17:51:34 +0000";
layers = (
{
hints = (
{
horizontal = 1;
place = (0.07, 21);
target = up;
type = BottomGhost;
},
{
horizontal = 1;
place = (537.26, 80.62);
place = (537.26, 80.62);
type = Stem;
},
{
place = (198, 128);
place = (198, 128);
type = Stem;
}
);
layerId = "6D7514A4-2FAB-465B-AF5F-621F801A1E4E";
shapes = (
{
closed = 1;
nodes = (
(506,537,l),
(506,618,l),
(28,618,l),
(28,537,l),
(229,566,l),
(198,0,l),
(326,0,l),
(304,566,l)
);
}
);
width = 548;
}
);
note = T;
unicode = 84;
},
{
glyphname = U;
lastChange = "2021-03-03 17:51:34 +0000";
layers = (
{
hints = (
{
horizontal = 1;
place = (-10.42, 149.62);
place = (-10.42, 149.62);
type = Stem;
},
{
place = (42.74, 80.62);
place = (42.74, 80.62);
type = Stem;
},
{
place = (408.08, 81.92);
place = (408.08, 81.92);
type = Stem;
}
);
layerId = "6D7514A4-2FAB-465B-AF5F-621F801A1E4E";
shapes = (
{
closed = 1;
nodes = (
(490,616,l),
(408,616,l),
(408,281,ls),
(408,236,o),
(396,202,o),
(371,177,cs),
(347,153,o),
(306,139,o),
(260,139,cs),
(214,139,o),
(170,162,o),
(157,177,cs),
(135,204,o),
(123,237,o),
(123,282,cs),
(123,616,l),
(43,616,l),
(43,198,ls),
(43,134,o),
(61,78,o),
(101,41,cs),
(141,5,o),
(198,-10,o),
(266,-10,cs),
(287,-10,ls),
(349,-5,o),
(402,13,o),
(438,50,cs),
(474,87,o),
(490,141,o),
(490,199,cs)
);
}
);
width = 540;
}
);
note = U;
unicode = 85;
},
{
glyphname = V;
lastChange = "2021-03-03 17:51:34 +0000";
layers = (
{
layerId = "6D7514A4-2FAB-465B-AF5F-621F801A1E4E";
shapes = (
{
closed = 1;
nodes = (
(300,193,l),
(125,616,l),
(36,616,l),
(225,-2,l),
(379,-2,l),
(566,616,l),
(477,616,l)
);
}
);
width = 626;
}
);
note = V;
unicode = 86;
},
{
glyphname = W;
lastChange = "2021-03-03 17:51:34 +0000";
layers = (
{
hints = (
{
horizontal = 1;
place = (0.07, 21);
target = up;
type = BottomGhost;
},
{
horizontal = 1;
place = (617.88, -20);
target = down;
type = TopGhost;
},
{
place = (30.89, 81.47);
place = (30.89, 81.47);
type = Stem;
}
);
layerId = "6D7514A4-2FAB-465B-AF5F-621F801A1E4E";
shapes = (
{
closed = 1;
nodes = (
(210,244,l),
(112,618,l),
(31,618,l),
(152,0,l),
(280,0,l),
(386,450,l),
(396,498,l),
(406,450,l),
(504,0,l),
(634,0,l),
(757,618,l),
(675,618,l),
(585,294,l),
(566,202,l),
(539,290,l),
(430,618,l),
(361,618,l),
(249,286,l),
(222,203,l)
);
}
);
width = 814;
}
);
note = W;
unicode = 87;
},
{
glyphname = X;
lastChange = "2021-03-03 17:51:34 +0000";
layers = (
{
hints = (
{
horizontal = 1;
place = (0.07, 21);
target = up;
type = BottomGhost;
},
{
horizontal = 1;
place = (617.88, -20);
target = down;
type = TopGhost;
}
);
layerId = "6D7514A4-2FAB-465B-AF5F-621F801A1E4E";
shapes = (
{
closed = 1;
nodes = (
(302,329,l),
(153,618,l),
(57,618,l),
(255,280,l),
(33,0,l),
(198,0,l),
(302,224,l),
(403,0,l),
(574,0,l),
(350,279,l),
(546,618,l),
(450,618,l)
);
}
);
width = 638;
}
);
note = X;
unicode = 88;
},
{
glyphname = Y;
lastChange = "2021-03-03 17:51:34 +0000";
layers = (
{
hints = (
{
horizontal = 1;
place = (0.07, 21);
target = up;
type = BottomGhost;
},
{
horizontal = 1;
place = (617.88, -20);
target = down;
type = TopGhost;
}
);
layerId = "6D7514A4-2FAB-465B-AF5F-621F801A1E4E";
shapes = (
{
closed = 1;
nodes = (
(284,313,l),
(124,618,l),
(31,618,l),
(236,230,l),
(211,0,l),
(355,0,l),
(330,230,l),
(538,618,l),
(446,618,l)
);
}
);
width = 596;
}
);
note = Y;
unicode = 89;
},
{
glyphname = Z;
lastChange = "2021-03-03 17:51:34 +0000";
layers = (
{
hints = (
{
horizontal = 1;
place = (0.07, 149.62);
place = (0.07, 149.62);
type = Stem;
},
{
horizontal = 1;
place = (551.26, 66.62);
place = (551.26, 66.62);
type = Stem;
}
);
layerId = "6D7514A4-2FAB-465B-AF5F-621F801A1E4E";
shapes = (
{
closed = 1;
nodes = (
(160,150,l),
(463,558,l),
(463,618,l),
(32,618,l),
(32,551,l),
(365,551,l),
(27,116,l),
(27,0,l),
(474,0,l),
(497,151,l)
);
}
);
width = 540;
}
);
note = Z;
unicode = 90;
},
{
glyphname = a;
lastChange = "2021-03-03 17:51:34 +0000";
layers = (
{
hints = (
{
horizontal = 1;
place = (0.16, 21);
target = up;
type = BottomGhost;
},
{
horizontal = 1;
place = (240.76, 41.24);
place = (240.76, 41.24);
type = Stem;
},
{
horizontal = 1;
place = (417.67, 56.02);
place = (417.67, 56.02);
type = Stem;
},
{
place = (22.54, 79.94);
place = (22.54, 79.94);
type = Stem;
},
{
place = (301, 79.41);
place = (301, 79.41);
type = Stem;
},
{
horizontal = 1;
place = (-8.4, 131.16);
place = (-8.4, 131.16);
type = Stem;
},
{
place = (13.13, 84.45);
place = (13.13, 84.45);
type = Stem;
}
);
layerId = "6D7514A4-2FAB-465B-AF5F-621F801A1E4E";
shapes = (
{
closed = 1;
nodes = (
(397,0,l),
(397,7,l),
(386,32,o),
(380,66,o),
(380,109,cs),
(380,323,ls),
(379,370,o),
(364,407,o),
(333,434,cs),
(303,460,o),
(261,474,o),
(207,474,cs),
(173,474,o),
(142,467,o),
(114,455,cs),
(86,442,o),
(64,425,o),
(47,403,cs),
(31,382,o),
(23,359,o),
(23,336,c),
(102,336,l),
(102,362,o),
(112,382,o),
(131,396,cs),
(150,411,o),
(174,418,o),
(203,418,cs),
(235,418,o),
(259,409,o),
(276,393,cs),
(293,376,o),
(301,354,o),
(301,327,cs),
(301,282,l),
(224,282,ls),
(157,282,o),
(105,269,o),
(68,242,cs),
(32,215,o),
(13,178,o),
(13,129,cs),
(13,89,o),
(28,56,o),
(57,30,cs),
(87,5,o),
(124,-8,o),
(170,-8,cs),
(221,-8,o),
(265,11,o),
(302,49,c),
(305,26,o),
(309,9,o),
(313,0,c)
);
},
{
closed = 1;
nodes = (
(146,123,o),
(131,127,o),
(118,135,cs),
(104,143,o),
(98,159,o),
(98,183,cs),
(97,201,o),
(109,215,o),
(133,225,cs),
(156,236,o),
(192,241,o),
(239,241,cs),
(297,241,l),
(293,185,l),
(292,184,o),
(291,180,o),
(289,176,cs),
(286,171,o),
(285,168,o),
(284,167,cs),
(283,165,o),
(282,163,o),
(280,160,cs),
(278,156,o),
(276,154,o),
(274,152,cs),
(272,150,o),
(270,148,o),
(267,146,cs),
(264,143,o),
(261,141,o),
(257,139,cs),
(239,128,o),
(207,123,o),
(164,123,cs)
);
}
);
width = 454;
}
);
note = a;
unicode = 97;
},
{
glyphname = b;
lastChange = "2021-03-03 17:51:34 +0000";
layers = (
{
hints = (
{
horizontal = 1;
place = (0.26, 21);
target = up;
type = BottomGhost;
},
{
horizontal = 1;
place = (425.31, 48.41);
place = (425.31, 48.41);
type = Stem;
},
{
place = (46.88, 73.04);
place = (46.88, 73.04);
type = Stem;
},
{
place = (358, 107.48);
place = (358, 107.48);
type = Stem;
},
{
horizontal = 1;
place = (-18.33, 142.54);
place = (-18.33, 142.54);
type = Stem;
}
);
layerId = "6D7514A4-2FAB-465B-AF5F-621F801A1E4E";
shapes = (
{
closed = 1;
nodes = (
(465,236,ls),
(465,311,o),
(449,369,o),
(417,412,cs),
(402,432,o),
(380,447,o),
(350,458,cs),
(320,468,o),
(290,474,o),
(259,474,cs),
(203,474,o),
(158,454,o),
(126,414,c),
(129,660,l),
(50,660,l),
(47,0,l),
(120,0,l),
(124,42,l),
(139,22,o),
(162,7,o),
(192,-3,cs),
(222,-13,o),
(253,-18,o),
(285,-18,cs),
(340,-18,o),
(384,3,o),
(416,46,cs),
(449,89,o),
(465,147,o),
(465,218,cs)
);
},
{
closed = 1;
nodes = (
(358,245,o),
(356,225,o),
(352,212,cs),
(348,199,o),
(340,185,o),
(328,168,cs),
(307,139,o),
(277,124,o),
(239,124,cs),
(188,124,o),
(150,149,o),
(125,197,c),
(126,333,l),
(155,395,o),
(193,425,o),
(238,425,cs),
(275,425,o),
(305,408,o),
(329,374,cs),
(340,358,o),
(348,344,o),
(352,331,cs),
(356,318,o),
(358,298,o),
(358,273,cs)
);
}
);
width = 510;
}
);
note = b;
unicode = 98;
},
{
glyphname = c;
lastChange = "2021-03-03 17:51:34 +0000";
layers = (
{
hints = (
{
horizontal = 1;
place = (-5.33, 150.88);
place = (-5.33, 150.88);
type = Stem;
},
{
horizontal = 1;
place = (425.46, 51.31);
place = (425.46, 51.31);
type = Stem;
},
{
place = (28.63, 79.5);
place = (28.63, 79.5);
type = Stem;
},
{
place = (345.31, 75.69);
place = (345.31, 75.69);
type = Stem;
}
);
layerId = "6D7514A4-2FAB-465B-AF5F-621F801A1E4E";
shapes = (
{
closed = 1;
nodes = (
(195,146,o),
(163,151,o),
(141,180,cs),
(119,209,o),
(108,226,o),
(108,280,cs),
(108,309,ls),
(108,329,o),
(124,363,o),
(141,382,cs),
(166,409,o),
(195,425,o),
(235,425,cs),
(265,425,o),
(291,416,o),
(311,396,cs),
(332,377,o),
(343,338,o),
(345,308,c),
(421,329,l),
(411,377,o),
(400,399,o),
(365,430,cs),
(331,461,o),
(287,477,o),
(235,477,cs),
(193,477,o),
(156,467,o),
(125,448,cs),
(94,428,o),
(70,401,o),
(54,365,cs),
(37,330,o),
(29,290,o),
(29,245,cs),
(29,231,ls),
(29,158,o),
(47,100,o),
(85,58,cs),
(122,16,o),
(172,-5,o),
(236,-5,cs),
(236,-5,o),
(236,-5,o),
(236,-5,cs),
(262,-5,o),
(302,4,o),
(325,16,cs),
(354,30,o),
(376,50,o),
(393,74,cs),
(410,98,o),
(422,120,o),
(428,147,c),
(353,184,l),
(333,171,o),
(316,157,o),
(307,154,cs),
(295,150,o),
(261,146,o),
(236,146,cs)
);
}
);
width = 467;
}
);
note = c;
unicode = 99;
},
{
glyphname = d;
lastChange = "2021-03-03 17:51:34 +0000";
layers = (
{
hints = (
{
horizontal = 1;
place = (-8.33, 148.49);
place = (-8.33, 148.49);
type = Stem;
},
{
horizontal = 1;
place = (429.31, 44.46);
place = (429.31, 44.46);
type = Stem;
},
{
place = (32.09, 79.49);
place = (32.09, 79.49);
type = Stem;
},
{
place = (344.9, 91.49);
place = (344.9, 91.49);
type = Stem;
},
{
horizontal = 1;
place = (0.26, 21);
target = up;
type = BottomGhost;
},
{
place = (344.9, 79.49);
place = (344.9, 79.49);
type = Stem;
}
);
layerId = "6D7514A4-2FAB-465B-AF5F-621F801A1E4E";
shapes = (
{
closed = 1;
nodes = (
(32,231,ls),
(32,160,o),
(49,102,o),
(83,58,cs),
(117,14,o),
(161,-8,o),
(215,-8,cs),
(271,-8,o),
(316,11,o),
(347,50,c),
(351,0,l),
(436,0,l),
(424,660,l),
(345,660,l),
(345,418,l),
(313,455,o),
(270,474,o),
(216,474,cs),
(161,474,o),
(117,452,o),
(83,409,cs),
(49,365,o),
(32,308,o),
(32,237,cs)
);
},
{
closed = 1;
nodes = (
(112,309,ls),
(111,323,o),
(113,335,o),
(116,345,cs),
(129,382,o),
(152,429,o),
(235,429,cs),
(285,429,o),
(321,407,o),
(345,364,c),
(345,208,l),
(322,163,o),
(285,140,o),
(234,140,cs),
(196,140,o),
(166,155,o),
(144,185,cs),
(123,214,o),
(112,255,o),
(112,309,cs)
);
}
);
width = 494;
}
);
note = d;
unicode = 100;
},
{
glyphname = e;
lastChange = "2021-03-03 17:51:34 +0000";
layers = (
{
hints = (
{
horizontal = 1;
place = (-10, 136.89);
place = (-10, 136.89);
type = Stem;
},
{
horizontal = 1;
place = (232.29, 41.3);
place = (232.29, 41.3);
type = Stem;
},
{
horizontal = 1;
place = (424.8, 47.31);
place = (424.8, 47.31);
type = Stem;
},
{
place = (27.88, 79.46);
place = (27.88, 79.46);
type = Stem;
},
{
place = (342.84, 79.5);
place = (342.84, 79.5);
type = Stem;
}
);
layerId = "6D7514A4-2FAB-465B-AF5F-621F801A1E4E";
shapes = (
{
closed = 1;
nodes = (
(319,-10,o),
(377,20,o),
(416,80,c),
(368,157,l),
(351,150,o),
(278,132,o),
(264,130,cs),
(250,128,o),
(239,127,o),
(230,127,cs),
(188,127,o),
(155,141,o),
(133,169,cs),
(113,194,o),
(109,201,o),
(107,232,c),
(422,232,l),
(422,265,ls),
(422,329,o),
(412,365,o),
(372,412,cs),
(339,452,o),
(292,472,o),
(231,472,cs),
(194,472,o),
(160,462,o),
(128,441,cs),
(97,421,o),
(72,393,o),
(54,356,cs),
(37,320,o),
(28,279,o),
(28,233,cs),
(28,218,ls),
(28,149,o),
(48,93,o),
(87,52,cs),
(127,11,o),
(178,-10,o),
(241,-10,cs)
);
},
{
closed = 1;
nodes = (
(231,425,ls),
(264,425,o),
(291,414,o),
(310,391,cs),
(329,370,o),
(340,333,o),
(343,280,cs),
(343,274,l),
(110,274,l),
(117,329,o),
(130,368,o),
(150,390,cs),
(172,413,o),
(199,425,o),
(231,425,cs)
);
}
);
width = 463;
}
);
note = e;
unicode = 101;
},
{
glyphname = f;
lastChange = "2021-03-03 17:51:34 +0000";
layers = (
{
hints = (
{
horizontal = 1;
place = (0.26, 21);
target = up;
type = BottomGhost;
},
{
horizontal = 1;
place = (393.74, 71.44);
place = (393.74, 71.44);
type = Stem;
},
{
horizontal = 1;
place = (617.8, 51.48);
place = (617.8, 51.48);
type = Stem;
},
{
place = (124.11, 79.49);
place = (124.11, 79.49);
type = Stem;
}
);
layerId = "6D7514A4-2FAB-465B-AF5F-621F801A1E4E";
shapes = (
{
closed = 1;
nodes = (
(99,0,l),
(225,0,l),
(204,414,l),
(303,394,l),
(303,465,l),
(204,465,l),
(204,530,ls),
(204,558,o),
(211,580,o),
(225,595,cs),
(239,610,o),
(259,618,o),
(284,618,cs),
(285,618,o),
(285,618,o),
(285,618,cs),
(300,618,o),
(314,617,o),
(327,614,c),
(332,662,l),
(314,667,o),
(296,669,o),
(277,669,cs),
(228,669,o),
(191,656,o),
(164,628,cs),
(137,601,o),
(124,563,o),
(124,513,cs),
(124,465,l),
(51,465,l),
(51,394,l),
(124,415,l)
);
}
);
width = 372;
}
);
note = f;
unicode = 102;
},
{
glyphname = g;
lastChange = "2021-03-03 17:51:34 +0000";
layers = (
{
hints = (
{
horizontal = 1;
place = (-199.8, 99.89);
place = (-199.8, 99.89);
type = Stem;
},
{
horizontal = 1;
place = (0.75, 149.35);
place = (0.75, 149.35);
type = Stem;
},
{
horizontal = 1;
place = (474.18, -20);
target = down;
type = TopGhost;
},
{
place = (25.09, 82.91);
place = (25.09, 82.91);
type = Stem;
},
{
place = (337.9, 79.92);
place = (337.9, 79.92);
type = Stem;
},
{
place = (345.2, 72.62);
place = (345.2, 72.62);
type = Stem;
},
{
horizontal = 1;
place = (415.31, 67.46);
place = (415.31, 67.46);
type = Stem;
}
);
layerId = "6D7514A4-2FAB-465B-AF5F-621F801A1E4E";
shapes = (
{
closed = 1;
nodes = (
(25,170,o),
(42,110,o),
(76,66,cs),
(109,23,o),
(153,1,o),
(208,1,cs),
(263,1,o),
(306,19,o),
(338,56,c),
(338,16,ls),
(338,-18,o),
(327,-45,o),
(305,-67,cs),
(284,-89,o),
(254,-100,o),
(215,-100,cs),
(167,-100,o),
(126,-82,o),
(90,-46,c),
(49,-93,l),
(58,-121,o),
(91,-164,o),
(122,-178,cs),
(154,-193,o),
(187,-200,o),
(221,-200,cs),
(281,-200,o),
(329,-182,o),
(364,-148,cs),
(403,-110,o),
(418,-32,o),
(418,20,cs),
(418,474,l),
(345,474,l),
(341,423,l),
(310,463,o),
(265,483,o),
(209,483,cs),
(153,483,o),
(109,461,o),
(75,419,cs),
(42,376,o),
(25,318,o),
(25,246,cs)
);
},
{
closed = 1;
nodes = (
(108,318,o),
(118,346,o),
(138,370,cs),
(163,400,o),
(193,415,o),
(228,415,cs),
(277,415,o),
(314,393,o),
(338,349,c),
(338,218,l),
(314,173,o),
(278,150,o),
(227,150,cs),
(189,150,o),
(159,165,o),
(137,195,cs),
(126,211,o),
(118,225,o),
(114,237,cs),
(110,249,o),
(108,261,o),
(108,282,cs)
);
}
);
width = 462;
}
);
note = g;
unicode = 103;
},
{
glyphname = h;
lastChange = "2021-03-03 17:51:34 +0000";
layers = (
{
hints = (
{
horizontal = 1;
place = (0, 21);
target = up;
type = BottomGhost;
},
{
horizontal = 1;
place = (406, 82.52);
place = (406, 82.52);
type = Stem;
},
{
horizontal = 1;
place = (660, -20);
target = down;
type = TopGhost;
},
{
place = (64.51, 79.49);
place = (64.51, 79.49);
type = Stem;
},
{
place = (350.68, 84.49);
place = (350.68, 84.49);
type = Stem;
},
{
place = (40.51, 126.49);
place = (40.51, 126.49);
type = Stem;
}
);
layerId = "6D7514A4-2FAB-465B-AF5F-621F801A1E4E";
shapes = (
{
closed = 1;
nodes = (
(144,660,l),
(65,660,l),
(41,0,l),
(167,0,l),
(144,331,l),
(155,354,o),
(170,372,o),
(190,385,cs),
(209,399,o),
(232,406,o),
(257,406,cs),
(289,406,o),
(313,398,o),
(328,382,cs),
(343,366,o),
(350,341,o),
(351,308,c),
(325,0,l),
(453,0,l),
(435,322,l),
(434,433,o),
(385,489,o),
(287,489,cs),
(230,489,o),
(179,452,o),
(144,409,c)
);
}
);
width = 530;
}
);
note = h;
unicode = 104;
},
{
glyphname = i;
lastChange = "2021-03-03 17:51:34 +0000";
layers = (
{
hints = (
{
horizontal = 1;
place = (0.26, 21);
target = up;
type = BottomGhost;
},
{
horizontal = 1;
place = (465.18, -20);
target = down;
type = TopGhost;
},
{
horizontal = 1;
place = (543.38, 91.1);
place = (543.38, 91.1);
type = Stem;
},
{
place = (58.6, 94.05);
place = (58.6, 94.05);
type = Stem;
}
);
layerId = "6D7514A4-2FAB-465B-AF5F-621F801A1E4E";
shapes = (
{
closed = 1;
nodes = (
(59,576,o),
(63,565,o),
(70,556,cs),
(78,548,o),
(90,543,o),
(105,543,cs),
(121,543,o),
(133,548,o),
(141,556,cs),
(149,565,o),
(153,576,o),
(153,589,cs),
(153,601,o),
(149,612,o),
(141,621,cs),
(133,630,o),
(121,634,o),
(105,634,cs),
(90,634,o),
(78,630,o),
(70,621,cs),
(63,612,o),
(59,601,o),
(59,589,cs)
);
},
{
closed = 1;
nodes = (
(166,0,l),
(148,465,l),
(68,465,l),
(39,0,l)
);
}
);
width = 220;
}
);
note = i;
unicode = 105;
},
{
glyphname = j;
lastChange = "2021-03-03 17:51:34 +0000";
layers = (
{
hints = (
{
horizontal = 1;
place = (-188.71, 146.48);
place = (-188.71, 146.48);
type = Stem;
},
{
horizontal = 1;
place = (464, -20);
target = down;
type = TopGhost;
},
{
horizontal = 1;
place = (542.2, 91.1);
place = (542.2, 91.1);
type = Stem;
},
{
place = (154.7, 79.46);
place = (154.7, 79.46);
type = Stem;
},
{
place = (136.7, 79.46);
place = (136.7, 79.46);
type = Stem;
},
{
place = (152.5, 93.64);
place = (152.5, 93.64);
type = Stem;
}
);
layerId = "6D7514A4-2FAB-465B-AF5F-621F801A1E4E";
shapes = (
{
closed = 1;
nodes = (
(234,464,l),
(155,464,l),
(137,22,ls),
(136,-2,o),
(132,-18,o),
(123,-28,cs),
(113,-37,o),
(100,-42,o),
(82,-42,cs),
(67,-42,o),
(55,-41,o),
(46,-39,c),
(46,-181,l),
(64,-187,o),
(81,-189,o),
(95,-189,cs),
(176,-189,o),
(216,-144,o),
(216,-55,c)
);
},
{
closed = 1;
nodes = (
(153,574,o),
(156,564,o),
(164,555,cs),
(172,547,o),
(183,542,o),
(199,542,cs),
(214,542,o),
(226,546,o),
(234,555,cs),
(242,564,o),
(246,574,o),
(246,587,cs),
(246,600,o),
(242,611,o),
(234,620,cs),
(226,629,o),
(214,633,o),
(199,633,cs),
(184,633,o),
(172,629,o),
(164,620,cs),
(156,611,o),
(153,600,o),
(153,587,cs)
);
}
);
width = 316;
}
);
note = j;
unicode = 106;
},
{
glyphname = k;
lastChange = "2021-03-03 17:51:34 +0000";
layers = (
{
hints = (
{
horizontal = 1;
place = (-0.74, 21);
target = up;
type = BottomGhost;
},
{
horizontal = 1;
place = (464.21, -20);
target = down;
type = TopGhost;
},
{
horizontal = 1;
place = (659.26, -20);
target = down;
type = TopGhost;
},
{
place = (77.88, 79.5);
place = (77.88, 79.5);
type = Stem;
}
);
layerId = "6D7514A4-2FAB-465B-AF5F-621F801A1E4E";
shapes = (
{
closed = 1;
nodes = (
(212,223,l),
(303,-1,l),
(498,-1,l),
(251,263,l),
(438,464,l),
(342,464,l),
(197,311,l),
(154,260,l),
(157,659,l),
(78,659,l),
(54,-1,l),
(180,-1,l),
(154,163,l)
);
}
);
width = 536;
}
);
note = k;
unicode = 107;
},
{
glyphname = l;
lastChange = "2021-03-03 17:51:34 +0000";
layers = (
{
hints = (
{
horizontal = 1;
place = (659, -20);
target = down;
type = TopGhost;
},
{
place = (38.05, 127.49);
place = (38.05, 127.49);
type = Stem;
},
{
place = (68.05, 79.49);
place = (68.05, 79.49);
type = Stem;
}
);
layerId = "6D7514A4-2FAB-465B-AF5F-621F801A1E4E";
shapes = (
{
closed = 1;
nodes = (
(166,-1,l),
(148,659,l),
(68,659,l),
(38,-1,l)
);
}
);
width = 224;
}
);
note = l;
unicode = 108;
},
{
glyphname = m;
lastChange = "2021-03-03 17:51:34 +0000";
layers = (
{
hints = (
{
horizontal = 1;
place = (-0.75, 21);
target = up;
type = BottomGhost;
},
{
horizontal = 1;
place = (464.18, -20);
target = down;
type = TopGhost;
},
{
place = (77.09, 76.19);
place = (77.09, 76.19);
type = Stem;
},
{
place = (360.83, 94.92);
place = (360.83, 94.92);
type = Stem;
},
{
place = (650.43, 75.49);
place = (650.43, 75.49);
type = Stem;
},
{
horizontal = 1;
place = (417.3, 55.47);
place = (417.3, 55.47);
type = Stem;
},
{
place = (36.09, 118.48);
place = (36.09, 118.48);
type = Stem;
}
);
layerId = "6D7514A4-2FAB-465B-AF5F-621F801A1E4E";
shapes = (
{
closed = 1;
nodes = (
(153,464,l),
(77,464,l),
(36,-1,l),
(155,-1,l),
(154,339,l),
(164,362,o),
(178,381,o),
(197,396,cs),
(215,410,o),
(237,417,o),
(262,417,cs),
(328,417,o),
(361,384,o),
(361,316,c),
(338,-1,l),
(456,-1,l),
(441,312,l),
(444,345,o),
(457,372,o),
(478,391,cs),
(497,408,o),
(522,417,o),
(551,417,cs),
(587,417,o),
(612,409,o),
(628,393,cs),
(643,376,o),
(650,351,o),
(650,318,c),
(623,-1,l),
(740,-1,l),
(726,311,ls),
(724,419,o),
(672,473,o),
(570,473,cs),
(537,473,o),
(507,466,o),
(483,452,cs),
(458,438,o),
(438,420,o),
(422,398,c),
(399,448,o),
(354,473,o),
(289,473,cs),
(231,473,o),
(186,453,o),
(151,413,c)
);
}
);
width = 800;
}
);
note = m;
unicode = 109;
},
{
glyphname = n;
lastChange = "2021-03-03 17:51:34 +0000";
layers = (
{
hints = (
{
horizontal = 1;
place = (-0.74, 21);
target = up;
type = BottomGhost;
},
{
horizontal = 1;
place = (464.18, -20);
target = down;
type = TopGhost;
},
{
place = (57.88, 71.78);
place = (57.88, 71.78);
type = Stem;
},
{
horizontal = 1;
place = (412.28, 60.46);
place = (412.28, 60.46);
type = Stem;
},
{
place = (19.88, 112.12);
place = (19.88, 112.12);
type = Stem;
},
{
place = (335.06, 79.49);
place = (335.06, 79.49);
type = Stem;
},
{
place = (328.06, 96.49);
place = (328.06, 96.49);
type = Stem;
}
);
layerId = "6D7514A4-2FAB-465B-AF5F-621F801A1E4E";
shapes = (
{
closed = 1;
nodes = (
(133,464,l),
(58,464,l),
(20,-1,l),
(132,-1,l),
(128,331,l),
(139,353,o),
(154,378,o),
(174,392,cs),
(193,405,o),
(216,412,o),
(242,412,cs),
(274,412,o),
(297,404,o),
(312,388,cs),
(327,372,o),
(335,347,o),
(335,314,cs),
(328,-1,l),
(425,-1,l),
(415,306,ls),
(414,417,o),
(364,473,o),
(266,473,cs),
(209,473,o),
(165,450,o),
(130,406,c)
);
}
);
width = 458;
}
);
note = n;
unicode = 110;
},
{
glyphname = o;
lastChange = "2021-03-03 17:51:34 +0000";
layers = (
{
hints = (
{
horizontal = 1;
place = (-3.34, 148.87);
place = (-3.34, 148.87);
type = Stem;
},
{
horizontal = 1;
place = (434.49, 44.26);
place = (434.49, 44.26);
type = Stem;
},
{
place = (13.63, 79.93);
place = (13.63, 79.93);
type = Stem;
},
{
place = (357.34, 79.54);
place = (357.34, 79.54);
type = Stem;
}
);
layerId = "6D7514A4-2FAB-465B-AF5F-621F801A1E4E";
shapes = (
{
closed = 1;
nodes = (
(14,236,ls),
(14,164,o),
(33,106,o),
(72,62,cs),
(111,19,o),
(162,-3,o),
(225,-3,cs),
(267,-3,o),
(304,7,o),
(337,27,cs),
(369,47,o),
(394,75,o),
(411,111,cs),
(428,147,o),
(437,187,o),
(437,233,cs),
(437,238,ls),
(437,311,o),
(417,369,o),
(378,413,cs),
(339,457,o),
(288,479,o),
(225,479,cs),
(184,479,o),
(147,469,o),
(115,449,cs),
(83,429,o),
(58,401,o),
(40,365,cs),
(23,329,o),
(14,288,o),
(14,242,cs)
);
},
{
closed = 1;
nodes = (
(93,305,o),
(104,354,o),
(130,388,cs),
(154,420,o),
(185,434,o),
(225,434,cs),
(265,434,o),
(297,419,o),
(321,387,cs),
(335,369,o),
(357,311,o),
(357,288,cs),
(357,241,o),
(363,228,o),
(335,191,cs),
(315,165,o),
(273,146,o),
(225,146,cs),
(179,146,o),
(138,166,o),
(116,191,cs),
(94,216,o),
(95,250,o),
(94,267,cs)
);
}
);
width = 472;
}
);
note = o;
unicode = 111;
},
{
glyphname = p;
lastChange = "2021-03-03 17:51:34 +0000";
layers = (
{
hints = (
{
horizontal = 1;
place = (-179.49, 21);
target = up;
type = BottomGhost;
},
{
horizontal = 1;
place = (-9.33, 137.88);
place = (-9.33, 137.88);
type = Stem;
},
{
horizontal = 1;
place = (424.28, 48.49);
place = (424.28, 48.49);
type = Stem;
},
{
place = (37.27, 72.49);
place = (37.27, 72.49);
type = Stem;
},
{
place = (339.51, 83.49);
place = (339.51, 83.49);
type = Stem;
},
{
horizontal = 1;
place = (464.18, -20);
target = down;
type = TopGhost;
},
{
place = (20.27, 89.49);
place = (20.27, 89.49);
type = Stem;
}
);
layerId = "6D7514A4-2FAB-465B-AF5F-621F801A1E4E";
shapes = (
{
closed = 1;
nodes = (
(423,234,ls),
(423,309,o),
(407,368,o),
(374,410,cs),
(342,452,o),
(298,473,o),
(242,473,cs),
(184,473,o),
(139,453,o),
(107,413,c),
(113,464,l),
(37,464,l),
(20,-179,l),
(110,-179,l),
(110,44,l),
(142,9,o),
(187,-9,o),
(243,-9,cs),
(298,-9,o),
(342,12,o),
(374,56,cs),
(407,99,o),
(423,156,o),
(423,227,cs)
);
},
{
closed = 1;
nodes = (
(340,233,o),
(329,200,o),
(310,174,cs),
(287,144,o),
(257,129,o),
(219,129,cs),
(170,129,o),
(134,150,o),
(110,192,c),
(110,341,l),
(141,397,o),
(177,424,o),
(218,424,cs),
(257,424,o),
(288,409,o),
(310,379,cs),
(336,344,o),
(340,325,o),
(340,282,cs)
);
}
);
width = 443;
}
);
note = p;
unicode = 112;
},
{
glyphname = q;
lastChange = "2021-03-03 17:51:34 +0000";
layers = (
{
hints = (
{
horizontal = 1;
place = (-179.46, 21);
target = up;
type = BottomGhost;
},
{
horizontal = 1;
place = (-9.3, 144.88);
place = (-9.3, 144.88);
type = Stem;
},
{
horizontal = 1;
place = (464.21, -20);
target = down;
type = TopGhost;
},
{
place = (44.88, 79.5);
place = (44.88, 79.5);
type = Stem;
},
{
place = (357.27, 79.49);
place = (357.27, 79.49);
type = Stem;
},
{
place = (347.27, 99.49);
place = (347.27, 99.49);
type = Stem;
},
{
horizontal = 1;
place = (426.44, 46.36);
place = (426.44, 46.36);
type = Stem;
}
);
layerId = "6D7514A4-2FAB-465B-AF5F-621F801A1E4E";
shapes = (
{
closed = 1;
nodes = (
(45,230,ls),
(45,158,o),
(62,100,o),
(95,56,cs),
(128,13,o),
(173,-9,o),
(229,-9,cs),
(283,-9,o),
(325,8,o),
(357,42,c),
(347,-179,l),
(447,-179,l),
(437,464,l),
(364,464,l),
(360,417,l),
(328,454,o),
(285,473,o),
(230,473,cs),
(174,473,o),
(129,452,o),
(95,409,cs),
(62,366,o),
(45,309,o),
(45,236,cs)
);
},
{
closed = 1;
nodes = (
(124,294,o),
(126,343,o),
(154,377,cs),
(184,414,o),
(209,426,o),
(250,426,cs),
(288,426,o),
(324,400,o),
(357,346,c),
(357,192,l),
(335,155,o),
(299,136,o),
(249,136,cs),
(211,136,o),
(179,148,o),
(152,177,cs),
(126,204,o),
(124,263,o),
(124,280,cs)
);
}
);
width = 510;
}
);
note = q;
unicode = 113;
},
{
glyphname = r;
lastChange = "2021-03-03 17:51:34 +0000";
layers = (
{
hints = (
{
horizontal = 1;
place = (-0.01, 21);
target = up;
type = BottomGhost;
},
{
horizontal = 1;
place = (396.81, 76.95);
place = (396.81, 76.95);
type = Stem;
},
{
place = (65.63, 77.37);
place = (65.63, 77.37);
type = Stem;
},
{
horizontal = 1;
place = (465.17, -20);
target = down;
type = TopGhost;
}
);
layerId = "6D7514A4-2FAB-465B-AF5F-621F801A1E4E";
shapes = (
{
closed = 1;
nodes = (
(287,468,l),
(279,472,o),
(268,474,o),
(252,474,cs),
(204,474,o),
(167,453,o),
(141,411,c),
(143,465,l),
(66,465,l),
(31,0,l),
(155,0,l),
(142,330,l),
(161,375,o),
(196,397,o),
(248,397,cs),
(258,397,o),
(279,395,o),
(288,394,c)
);
}
);
width = 324;
}
);
note = r;
unicode = 114;
},
{
glyphname = s;
lastChange = "2021-03-03 17:51:34 +0000";
layers = (
{
hints = (
{
horizontal = 1;
place = (-12.34, 118.86);
place = (-12.34, 118.86);
type = Stem;
},
{
horizontal = 1;
place = (420.44, 49.31);
place = (420.44, 49.31);
type = Stem;
},
{
place = (69.83, 64.46);
place = (69.83, 64.46);
type = Stem;
},
{
place = (329.21, 79.61);
place = (329.21, 79.61);
type = Stem;
},
{
place = (331.27, 63.57);
place = (331.27, 63.57);
type = Stem;
}
);
layerId = "6D7514A4-2FAB-465B-AF5F-621F801A1E4E";
shapes = (
{
closed = 1;
nodes = (
(329,155,o),
(320,134,o),
(302,122,cs),
(284,110,o),
(260,107,o),
(230,107,cs),
(197,106,o),
(176,112,o),
(160,128,cs),
(141,145,o),
(144,143,o),
(130,172,c),
(39,147,l),
(39,120,o),
(47,86,o),
(64,62,cs),
(80,39,o),
(102,20,o),
(131,7,cs),
(160,-6,o),
(193,-12,o),
(230,-12,cs),
(283,-12,o),
(326,0,o),
(359,25,cs),
(392,51,o),
(409,92,o),
(409,133,cs),
(409,158,o),
(404,191,o),
(392,208,cs),
(380,225,o),
(361,248,o),
(336,260,cs),
(311,272,o),
(279,283,o),
(239,292,cs),
(200,301,o),
(166,307,o),
(153,320,cs),
(138,335,o),
(134,347,o),
(134,361,cs),
(134,375,o),
(144,389,o),
(161,401,cs),
(177,414,o),
(200,420,o),
(229,420,cs),
(257,420,o),
(280,413,o),
(298,397,cs),
(317,381,o),
(331,346,o),
(331,325,c),
(395,344,l),
(385,389,o),
(381,402,o),
(355,429,cs),
(325,460,o),
(279,470,o),
(227,470,cs),
(176,470,o),
(133,458,o),
(103,430,cs),
(72,401,o),
(70,375,o),
(70,355,cs),
(70,340,o),
(70,322,o),
(82,305,cs),
(93,288,o),
(101,285,o),
(124,273,cs),
(148,261,o),
(180,251,o),
(220,242,cs),
(260,234,o),
(289,224,o),
(305,212,cs),
(321,200,o),
(329,192,o),
(329,176,cs)
);
}
);
width = 443;
}
);
note = s;
unicode = 115;
},
{
glyphname = t;
lastChange = "2021-03-03 17:51:34 +0000";
layers = (
{
hints = (
{
horizontal = 1;
place = (-8.33, 148.38);
place = (-8.33, 148.38);
type = Stem;
},
{
horizontal = 1;
place = (412.74, 52.44);
place = (412.74, 52.44);
type = Stem;
},
{
place = (150.53, 79.47);
place = (150.53, 79.47);
type = Stem;
},
{
horizontal = 1;
place = (400.74, 64.44);
place = (400.74, 64.44);
type = Stem;
}
);
layerId = "6D7514A4-2FAB-465B-AF5F-621F801A1E4E";
shapes = (
{
closed = 1;
nodes = (
(233,578,l),
(154,578,l),
(151,465,l),
(66,465,l),
(66,401,l),
(151,413,l),
(151,115,ls),
(151,76,o),
(160,45,o),
(178,24,cs),
(196,2,o),
(222,-8,o),
(258,-8,cs),
(279,-8,o),
(299,-5,o),
(319,0,c),
(338,152,l),
(300,144,o),
(281,140,o),
(281,140,cs),
(263,140,o),
(249,145,o),
(242,154,cs),
(234,163,o),
(230,177,o),
(230,196,cs),
(230,413,l),
(317,401,l),
(317,465,l),
(230,465,l)
);
}
);
width = 388;
}
);
note = t;
unicode = 116;
},
{
glyphname = u;
lastChange = "2021-03-03 17:51:34 +0000";
layers = (
{
hints = (
{
horizontal = 1;
place = (-16.33, 150.46);
place = (-16.33, 150.46);
type = Stem;
},
{
horizontal = 1;
place = (466.18, -20);
target = down;
type = TopGhost;
},
{
place = (0.63, 79.5);
place = (0.63, 79.5);
type = Stem;
},
{
place = (287.24, 79.49);
place = (287.24, 79.49);
type = Stem;
}
);
layerId = "6D7514A4-2FAB-465B-AF5F-621F801A1E4E";
shapes = (
{
closed = 1;
nodes = (
(287,1,l),
(367,1,l),
(367,466,l),
(287,466,l),
(287,209,l),
(267,164,o),
(227,134,o),
(166,134,cs),
(109,134,o),
(80,176,o),
(80,247,cs),
(80,466,l),
(1,466,l),
(1,155,ls),
(1,98,o),
(14,56,o),
(40,27,cs),
(66,-2,o),
(104,-16,o),
(153,-16,cs),
(213,-16,o),
(258,11,o),
(289,47,c)
);
}
);
width = 407;
}
);
note = u;
unicode = 117;
},
{
glyphname = v;
lastChange = "2021-03-03 17:51:34 +0000";
layers = (
{
hints = (
{
horizontal = 1;
place = (0.26, 21);
target = up;
type = BottomGhost;
},
{
horizontal = 1;
place = (465.18, -20);
target = down;
type = TopGhost;
}
);
layerId = "6D7514A4-2FAB-465B-AF5F-621F801A1E4E";
shapes = (
{
closed = 1;
nodes = (
(248,174,l),
(130,465,l),
(49,465,l),
(182,0,l),
(310,0,l),
(445,465,l),
(364,465,l)
);
}
);
width = 474;
}
);
note = v;
unicode = 118;
},
{
glyphname = w;
lastChange = "2021-03-03 17:51:34 +0000";
layers = (
{
hints = (
{
horizontal = 1;
place = (0.2, 21);
target = up;
type = BottomGhost;
},
{
horizontal = 1;
place = (451.92, -20);
target = down;
type = TopGhost;
}
);
layerId = "6D7514A4-2FAB-465B-AF5F-621F801A1E4E";
shapes = (
{
closed = 1;
nodes = (
(501,149,l),
(393,452,l),
(331,452,l),
(226,150,l),
(137,452,l),
(60,452,l),
(157,0,l),
(285,0,l),
(361,401,l),
(435,0,l),
(564,0,l),
(665,452,l),
(588,452,l)
);
}
);
width = 754;
}
);
note = w;
unicode = 119;
},
{
glyphname = x;
lastChange = "2021-03-03 17:51:34 +0000";
layers = (
{
hints = (
{
horizontal = 1;
place = (0.26, 21);
target = up;
type = BottomGhost;
},
{
horizontal = 1;
place = (465.18, -20);
target = down;
type = TopGhost;
}
);
layerId = "6D7514A4-2FAB-465B-AF5F-621F801A1E4E";
shapes = (
{
closed = 1;
nodes = (
(259,250,l),
(154,465,l),
(68,465,l),
(210,224,l),
(26,0,l),
(178,0,l),
(260,163,l),
(342,0,l),
(495,0,l),
(304,222,l),
(452,465,l),
(365,465,l)
);
}
);
width = 536;
}
);
note = x;
unicode = 120;
},
{
glyphname = y;
lastChange = "2021-03-03 17:51:34 +0000";
layers = (
{
hints = (
{
horizontal = 1;
place = (464, -20);
target = down;
type = TopGhost;
}
);
layerId = "6D7514A4-2FAB-465B-AF5F-621F801A1E4E";
shapes = (
{
closed = 1;
nodes = (
(273,146,l),
(157,464,l),
(62,464,l),
(217,76,l),
(202,43,ls),
(193,25,o),
(180,8,o),
(165,-9,cs),
(155,-21,o),
(136,-24,o),
(108,-18,cs),
(97,-16,l),
(97,-182,l),
(127,-187,l),
(142,-189,l),
(205,-189,o),
(251,-150,o),
(280,-73,cs),
(467,464,l),
(381,464,l)
);
}
);
width = 550;
}
);
note = y;
unicode = 121;
},
{
glyphname = z;
lastChange = "2021-03-03 17:51:34 +0000";
layers = (
{
layerId = "6D7514A4-2FAB-465B-AF5F-621F801A1E4E";
shapes = (
{
closed = 1;
nodes = (
(187,151,l),
(397,409,l),
(397,465,l),
(45,465,l),
(45,399,l),
(297,399,l),
(41,107,l),
(41,0,l),
(395,0,l),
(418,151,l)
);
}
